  0
SECTION
  2
HEADER
  9
$ACADVER
 1
AC1009
  9
$EXTMIN
 10
-291.5000000000000000
 20
-5.8000000000000007
  9
$EXTMAX
 10
291.5000000000000000
 20
121.8000000000000000
  9
$LIMMIN
 10
-291.5000000000000000
 20
-5.8000000000000007
  9
$LIMMAX
 10
291.5000000000000000
 20
121.8000000000000000
  9
$LTSCALE
 40
2.0000000000000000
  9
$LUPREC
 70
     2
  9
$LUNITS
 70
     2
  9
$AUPREC
 70
     2
  9
$TEXTSIZE
 40
3.0000000000000000
  9
$DIMSCALE
 40
1.0000000000000000
  9
$DIMLFAC
 40
1.0000000000000000
  9
$DIMTXT
 40
4.0000000000000000
  9
$DIMEXO
 40
6.0000000000000000
  9
$DIMASZ
 40
4.0000000000000000
  9
$DIMEXE
 40
4.0000000000000000
  9
$DIMSE1
 70
     0
  9
$DIMSE2
 70
     0
  9
$AUNITS
 70
     0
  9
$DIMTAD
 70
     1
  9
$DIMTIH
 70
     0
  9
$DIMTOH
 70
     0
  9
$FILLMODE
 70
     1
  0
ENDSEC
  0
SECTION
  2
TABLES
  0
TABLE
  2
LTYPE
 70
     0
  0
LTYPE
  2
CONTINUOUS
 70
    64
  3
Solid line
 72
    65
 73
     0
 40
0.0
  0
ENDTAB
  0
TABLE
  2
LAYER
 70
     0
  0
LAYER
  2
0
 70
  64
  62
7
  6
CONTINUOUS
  0
ENDTAB
  0
ENDSEC
  0
SECTION
  2
BLOCKS
  0
ENDSEC
  0
SECTION
  2
ENTITIES
  0
LINE
  8
0
 62
     9
 6
CONTINUOUS
 10
-265.0000000000000000
 20
0.0000000000000000
 30
0.0000000000000000
 11
265.0000000000000000
 21
0.0000000000000000
 31
0.0000000000000000
  0
LINE
  8
0
 62
     9
 6
CONTINUOUS
 10
265.0000000000000000
 20
0.0000000000000000
 30
0.0000000000000000
 11
265.0000000000000000
 21
80.0000000000000000
 31
0.0000000000000000
  0
LINE
  8
0
 62
     9
 6
CONTINUOUS
 10
265.0000000000000000
 20
80.0000000000000000
 30
0.0000000000000000
 11
-265.0000000000000000
 21
80.0000000000000000
 31
0.0000000000000000
  0
LINE
  8
0
 62
     9
 6
CONTINUOUS
 10
-265.0000000000000000
 20
80.0000000000000000
 30
0.0000000000000000
 11
-265.0000000000000000
 21
0.0000000000000000
 31
0.0000000000000000
  0
CIRCLE
  8
0
 62
     9
  6
CONTINUOUS
 10
-255.0000000000000000
 20
12.0000000000000000
 30
0.0000000000000000
 40
3.0000000000000000
  0
CIRCLE
  8
0
 62
     9
  6
CONTINUOUS
 10
-225.0000000000000000
 20
12.0000000000000000
 30
0.0000000000000000
 40
3.0000000000000000
  0
CIRCLE
  8
0
 62
     9
  6
CONTINUOUS
 10
225.0000000000000000
 20
12.0000000000000000
 30
0.0000000000000000
 40
3.0000000000000000
  0
CIRCLE
  8
0
 62
     9
  6
CONTINUOUS
 10
255.0000000000000000
 20
12.0000000000000000
 30
0.0000000000000000
 40
3.0000000000000000
  0
CIRCLE
  8
0
 62
     9
  6
CONTINUOUS
 10
-75.0000000000000000
 20
45.0000000000000000
 30
0.0000000000000000
 40
24.0000000000000000
  0
CIRCLE
  8
0
 62
     9
  6
CONTINUOUS
 10
-94.7989898732233480
 20
64.7989898732233200
 30
0.0000000000000000
 40
2.0000000000000000
  0
CIRCLE
  8
0
 62
     9
  6
CONTINUOUS
 10
-55.2010101267764880
 20
64.7989898732231500
 30
0.0000000000000000
 40
2.0000000000000000
  0
CIRCLE
  8
0
 62
     9
  6
CONTINUOUS
 10
-55.2010101267764810
 20
25.2010101267768500
 30
0.0000000000000000
 40
2.0000000000000000
  0
CIRCLE
  8
0
 62
     9
  6
CONTINUOUS
 10
-94.7989898732233630
 20
25.2010101267766980
 30
0.0000000000000000
 40
1.9999999999999982
  0
CIRCLE
  8
0
 62
     9
  6
CONTINUOUS
 10
75.0000000000000000
 20
5.0000000000000000
 30
0.0000000000000000
 40
1.5000000000000000
  0
CIRCLE
  8
0
 62
     9
  6
CONTINUOUS
 10
235.0000000000000000
 20
5.0000000000000000
 30
0.0000000000000000
 40
1.5000000000000000
  0
CIRCLE
  8
0
 62
     9
  6
CONTINUOUS
 10
-235.0000000000000000
 20
75.0000000000000000
 30
0.0000000000000000
 40
1.5000000000000000
  0
CIRCLE
  8
0
 62
     9
  6
CONTINUOUS
 10
-75.0000000000000000
 20
75.0000000000000000
 30
0.0000000000000000
 40
1.5000000000000000
  0
CIRCLE
  8
0
 62
     9
  6
CONTINUOUS
 10
75.0000000000000000
 20
75.0000000000000000
 30
0.0000000000000000
 40
1.5000000000000000
  0
CIRCLE
  8
0
 62
     9
  6
CONTINUOUS
 10
235.0000000000000000
 20
75.0000000000000000
 30
0.0000000000000000
 40
1.5000000000000000
  0
CIRCLE
  8
0
 62
     9
  6
CONTINUOUS
 10
-75.0000000000000000
 20
5.0000000000000000
 30
0.0000000000000000
 40
1.5000000000000000
  0
CIRCLE
  8
0
 62
     9
  6
CONTINUOUS
 10
-235.0000000000000000
 20
5.0000000000000000
 30
0.0000000000000000
 40
1.5000000000000000
  0
CIRCLE
  8
0
 62
     9
  6
CONTINUOUS
 10
-185.0000000000000000
 20
20.0000000000000000
 30
0.0000000000000000
 40
8.0000000000000000
  0
CIRCLE
  8
0
 62
     9
  6
CONTINUOUS
 10
-135.0000000000000000
 20
20.0000000000000000
 30
0.0000000000000000
 40
6.0000000000000000
  0
CIRCLE
  8
0
 62
     9
  6
CONTINUOUS
 10
-10.0000000000000000
 20
20.0000000000000000
 30
0.0000000000000000
 40
6.0000000000000000
  0
CIRCLE
  8
0
 62
     9
  6
CONTINUOUS
 10
125.0000000000000000
 20
20.0000000000000000
 30
0.0000000000000000
 40
6.0000000000000000
  0
CIRCLE
  8
0
 62
     9
  6
CONTINUOUS
 10
165.0000000000000000
 20
20.0000000000000000
 30
0.0000000000000000
 40
4.0000000000000000
  0
CIRCLE
  8
0
 62
     9
  6
CONTINUOUS
 10
18.0000000000000000
 20
50.0000000000000000
 30
0.0000000000000000
 40
1.5000000000000000
  0
CIRCLE
  8
0
 62
     9
  6
CONTINUOUS
 10
-27.0000000000000000
 20
50.0000000000000000
 30
0.0000000000000000
 40
1.5000000000000000
  0
CIRCLE
  8
0
 62
     9
  6
CONTINUOUS
 10
-27.0000000000000000
 20
30.0000000000000000
 30
0.0000000000000000
 40
1.5000000000000000
  0
CIRCLE
  8
0
 62
     9
  6
CONTINUOUS
 10
17.9999999999999930
 20
30.0000000000000000
 30
0.0000000000000000
 40
1.5000000000000000
  0
CIRCLE
  8
0
 62
     9
  6
CONTINUOUS
 10
-94.7989898732233630
 20
25.2010101267766940
 30
0.0000000000000000
 40
2.0000000000000000
  0
ENDSEC
  0
EOF
