  0
SECTION
  2
HEADER
  9
$ACADVER
 1
AC1009
  9
$EXTMIN
 10
-26.5000000000000000
 20
-141.5000000000000000
  9
$EXTMAX
 10
556.5000000000000000
 20
331.5000000000000000
  9
$LIMMIN
 10
-26.5000000000000000
 20
-141.5000000000000000
  9
$LIMMAX
 10
556.5000000000000000
 20
331.5000000000000000
  9
$LTSCALE
 40
2.5000000000000000
  9
$LUPREC
 70
     2
  9
$LUNITS
 70
     2
  9
$AUPREC
 70
     2
  9
$TEXTSIZE
 40
3.0000000000000000
  9
$DIMSCALE
 40
1.0000000000000000
  9
$DIMLFAC
 40
1.0000000000000000
  9
$DIMTXT
 40
5.0000000000000000
  9
$DIMEXO
 40
7.5000000000000000
  9
$DIMASZ
 40
3.7500000000000000
  9
$DIMEXE
 40
5.0000000000000000
  9
$DIMSE1
 70
     0
  9
$DIMSE2
 70
     0
  9
$AUNITS
 70
     0
  9
$DIMTAD
 70
     1
  9
$DIMTIH
 70
     0
  9
$DIMTOH
 70
     0
  9
$FILLMODE
 70
     1
  0
ENDSEC
  0
SECTION
  2
TABLES
  0
TABLE
  2
LTYPE
 70
     0
  0
LTYPE
  2
CONTINUOUS
 70
    64
  3
Solid line
 72
    65
 73
     0
 40
0.0
  0
ENDTAB
  0
TABLE
  2
LAYER
 70
     0
  0
LAYER
  2
0
 70
  64
  62
7
  6
CONTINUOUS
  0
ENDTAB
  0
ENDSEC
  0
SECTION
  2
BLOCKS
  0
ENDSEC
  0
SECTION
  2
ENTITIES
  0
LINE
  8
0
 62
     1
 6
CONTINUOUS
 10
0.0000000000000000
 20
0.0000000000000000
 30
0.0000000000000000
 11
530.0000000000000000
 21
0.0000000000000000
 31
0.0000000000000000
  0
LINE
  8
0
 62
     1
 6
CONTINUOUS
 10
0.0000000000000000
 20
170.0000000000000000
 30
0.0000000000000000
 11
530.0000000000000000
 21
170.0000000000000000
 31
0.0000000000000000
  0
LINE
  8
0
 62
     1
 6
CONTINUOUS
 10
530.0000000000000000
 20
170.0000000000000000
 30
0.0000000000000000
 11
530.0000000000000000
 21
0.0000000000000000
 31
0.0000000000000000
  0
LINE
  8
0
 62
     1
 6
CONTINUOUS
 10
0.0000000000000000
 20
170.0000000000000000
 30
0.0000000000000000
 11
0.0000000000000000
 21
0.0000000000000000
 31
0.0000000000000000
  0
LINE
  8
0
 62
     1
 6
CONTINUOUS
 10
500.0000000000000000
 20
90.0000000000000000
 30
0.0000000000000000
 11
500.0000000000000000
 21
60.0000000000000000
 31
0.0000000000000000
  0
LINE
  8
0
 62
     1
 6
CONTINUOUS
 10
370.0000000000000000
 20
90.0000000000000000
 30
0.0000000000000000
 11
370.0000000000000000
 21
60.0000000000000000
 31
0.0000000000000000
  0
LINE
  8
0
 62
     1
 6
CONTINUOUS
 10
375.0000000000000000
 20
95.0000000000000000
 30
0.0000000000000000
 11
370.0000000000000000
 21
90.0000000000000000
 31
0.0000000000000000
  0
LINE
  8
0
 62
     1
 6
CONTINUOUS
 10
375.0000000000000000
 20
95.0000000000000000
 30
0.0000000000000000
 11
495.0000000000000000
 21
95.0000000000000000
 31
0.0000000000000000
  0
LINE
  8
0
 62
     1
 6
CONTINUOUS
 10
375.0000000000000000
 20
55.0000000000000000
 30
0.0000000000000000
 11
495.0000000000000000
 21
55.0000000000000000
 31
0.0000000000000000
  0
LINE
  8
0
 62
     1
 6
CONTINUOUS
 10
7.0000000000000000
 20
95.0000000000000000
 30
0.0000000000000000
 11
7.0000000000000000
 21
55.0000000000000000
 31
0.0000000000000000
  0
LINE
  8
0
 62
     1
 6
CONTINUOUS
 10
104.0000000000000000
 20
95.0000000000000000
 30
0.0000000000000000
 11
104.0000000000000000
 21
55.0000000000000000
 31
0.0000000000000000
  0
LINE
  8
0
 62
     1
 6
CONTINUOUS
 10
7.0000000000000000
 20
95.0000000000000000
 30
0.0000000000000000
 11
104.0000000000000000
 21
95.0000000000000000
 31
0.0000000000000000
  0
LINE
  8
0
 62
     1
 6
CONTINUOUS
 10
7.0000000000000000
 20
55.0000000000000000
 30
0.0000000000000000
 11
104.0000000000000000
 21
55.0000000000000000
 31
0.0000000000000000
  0
LINE
  8
0
 62
     1
 6
CONTINUOUS
 10
370.0000000000000000
 20
60.0000000000000000
 30
0.0000000000000000
 11
375.0000000000000000
 21
55.0000000000000000
 31
0.0000000000000000
  0
CIRCLE
  8
0
 62
     1
  6
CONTINUOUS
 10
370.0000000000000000
 20
95.0000000000000000
 30
0.0000000000000000
 40
1.5000000000000000
  0
CIRCLE
  8
0
 62
     1
  6
CONTINUOUS
 10
500.0000000000000000
 20
55.0000000000000000
 30
0.0000000000000000
 40
1.5000000000000000
  0
CIRCLE
  8
0
 62
     1
  6
CONTINUOUS
 10
500.0000000000000000
 20
95.0000000000000000
 30
0.0000000000000000
 40
1.5000000000000000
  0
LINE
  8
0
 62
     1
 6
CONTINUOUS
 10
495.0000000000000000
 20
55.0000000000000000
 30
0.0000000000000000
 11
500.0000000000000000
 21
60.0000000000000000
 31
0.0000000000000000
  0
LINE
  8
0
 62
     1
 6
CONTINUOUS
 10
500.0000000000000000
 20
90.0000000000000000
 30
0.0000000000000000
 11
495.0000000000000000
 21
95.0000000000000000
 31
0.0000000000000000
  0
CIRCLE
  8
0
 62
     1
  6
CONTINUOUS
 10
8.5000000000000000
 20
102.5000000000000000
 30
0.0000000000000000
 40
1.5000000000000000
  0
CIRCLE
  8
0
 62
     1
  6
CONTINUOUS
 10
8.5000000000000000
 20
47.5000000000000000
 30
0.0000000000000000
 40
1.5000000000000000
  0
CIRCLE
  8
0
 62
     1
  6
CONTINUOUS
 10
102.5000000000000000
 20
47.5000000000000000
 30
0.0000000000000000
 40
1.5000000000000000
  0
CIRCLE
  8
0
 62
     1
  6
CONTINUOUS
 10
102.5000000000000000
 20
102.5000000000000000
 30
0.0000000000000000
 40
1.5000000000000000
  0
CIRCLE
  8
0
 62
     1
  6
CONTINUOUS
 10
124.0000000000000000
 20
57.0000000000000000
 30
0.0000000000000000
 40
1.5000000000000000
  0
CIRCLE
  8
0
 62
     1
  6
CONTINUOUS
 10
114.0000000000000000
 20
75.0000000000000000
 30
0.0000000000000000
 40
3.5000000000000000
  0
CIRCLE
  8
0
 62
     1
  6
CONTINUOUS
 10
500.0000000000000000
 20
164.0000000000000000
 30
0.0000000000000000
 40
1.5000000000000000
  0
CIRCLE
  8
0
 62
     1
  6
CONTINUOUS
 10
340.0000000000000000
 20
164.0000000000000000
 30
0.0000000000000000
 40
1.5000000000000000
  0
CIRCLE
  8
0
 62
     1
  6
CONTINUOUS
 10
190.0000000000000000
 20
164.0000000000000000
 30
0.0000000000000000
 40
1.5000000000000000
  0
CIRCLE
  8
0
 62
     1
  6
CONTINUOUS
 10
30.0000000000000000
 20
164.0000000000000000
 30
0.0000000000000000
 40
1.5000000000000000
  0
CIRCLE
  8
0
 62
     1
  6
CONTINUOUS
 10
30.0000000000000000
 20
6.0000000000000000
 30
0.0000000000000000
 40
1.5000000000000000
  0
CIRCLE
  8
0
 62
     1
  6
CONTINUOUS
 10
190.0000000000000000
 20
6.0000000000000000
 30
0.0000000000000000
 40
1.5000000000000000
  0
CIRCLE
  8
0
 62
     1
  6
CONTINUOUS
 10
340.0000000000000000
 20
6.0000000000000000
 30
0.0000000000000000
 40
1.5000000000000000
  0
CIRCLE
  8
0
 62
     1
  6
CONTINUOUS
 10
500.0000000000000000
 20
6.0000000000000000
 30
0.0000000000000000
 40
1.5000000000000000
  0
LINE
  8
0
 62
     1
 6
CONTINUOUS
 10
62.1706359099588110
 20
-50.6774576678356890
 30
0.0000000000000000
 11
79.1498019797422500
 21
-67.6466872670774110
 31
0.0000000000000000
  0
LINE
  8
0
 62
     1
 6
CONTINUOUS
 10
280.0000000000000000
 20
-30.0000000000000000
 30
0.0000000000000000
 11
280.0000000000000000
 21
-110.0000000000000000
 31
0.0000000000000000
  0
LINE
  8
0
 62
     1
 6
CONTINUOUS
 10
0.0000000000000000
 20
-30.0000000000000000
 30
0.0000000000000000
 11
0.0000000000000000
 21
-110.0000000000000000
 31
0.0000000000000000
  0
LINE
  8
0
 62
     1
 6
CONTINUOUS
 10
0.0000000000000000
 20
310.0000000000000000
 30
0.0000000000000000
 11
530.0000000000000000
 21
310.0000000000000000
 31
0.0000000000000000
  0
LINE
  8
0
 62
     1
 6
CONTINUOUS
 10
219.0000000000000000
 20
-20.0000000000000000
 30
0.0000000000000000
 11
267.0000000000000000
 21
-20.0000000000000000
 31
0.0000000000000000
  0
LINE
  8
0
 62
     1
 6
CONTINUOUS
 10
112.0000000000000000
 20
-80.0000000000000000
 30
0.0000000000000000
 11
122.0000000000000000
 21
-81.0000000000000000
 31
0.0000000000000000
  0
LINE
  8
0
 62
     1
 6
CONTINUOUS
 10
0.0000000000000000
 20
310.0000000000000000
 30
0.0000000000000000
 11
0.0000000000000000
 21
200.0000000000000000
 31
0.0000000000000000
  0
LINE
  8
0
 62
     1
 6
CONTINUOUS
 10
530.0000000000000000
 20
310.0000000000000000
 30
0.0000000000000000
 11
530.0000000000000000
 21
200.0000000000000000
 31
0.0000000000000000
  0
LINE
  8
0
 62
     1
 6
CONTINUOUS
 10
112.0000000000000000
 20
-110.0000000000000000
 30
0.0000000000000000
 11
122.0000000000000000
 21
-109.0000000000000000
 31
0.0000000000000000
  0
LINE
  8
0
 62
     1
 6
CONTINUOUS
 10
60.9999999999999930
 20
-20.0000000000000000
 30
0.0000000000000000
 11
62.0000000000000000
 21
-30.0000000000000000
 31
0.0000000000000000
  0
LINE
  8
0
 62
     1
 6
CONTINUOUS
 10
13.0000000000000000
 20
-20.0000000000000000
 30
0.0000000000000000
 11
60.9999999999999930
 21
-20.0000000000000000
 31
0.0000000000000000
  0
LINE
  8
0
 62
     1
 6
CONTINUOUS
 10
13.0000000000000000
 20
-20.0000000000000000
 30
0.0000000000000000
 11
12.0000000000000000
 21
-30.0000000000000000
 31
0.0000000000000000
  0
LINE
  8
0
 62
     1
 6
CONTINUOUS
 10
268.0000000000000000
 20
-110.0000000000000000
 30
0.0000000000000000
 11
280.0000000000000000
 21
-110.0000000000000000
 31
0.0000000000000000
  0
LINE
  8
0
 62
     1
 6
CONTINUOUS
 10
63.9741042125361830
 20
-48.9461280973614020
 30
0.0000000000000000
 11
80.9532702823196360
 21
-65.9153576966031240
 31
0.0000000000000000
  0
LINE
  8
0
 62
     1
 6
CONTINUOUS
 10
158.4000000000000100
 20
-81.0000000000000000
 30
0.0000000000000000
 11
158.4000000000000100
 21
-109.0000000000000000
 31
0.0000000000000000
  0
LINE
  8
0
 62
     1
 6
CONTINUOUS
 10
267.0000000000000000
 20
-20.0000000000000000
 30
0.0000000000000000
 11
268.0000000000000000
 21
-30.0000000000000000
 31
0.0000000000000000
  0
LINE
  8
0
 62
     1
 6
CONTINUOUS
 10
122.0000000000000000
 20
-81.0000000000000000
 30
0.0000000000000000
 11
122.0000000000000000
 21
-109.0000000000000000
 31
0.0000000000000000
  0
LINE
  8
0
 62
     1
 6
CONTINUOUS
 10
168.4000000000000100
 20
-110.0000000000000000
 30
0.0000000000000000
 11
169.4000000000000100
 21
-120.0000000000000000
 31
0.0000000000000000
  0
LINE
  8
0
 62
     1
 6
CONTINUOUS
 10
112.0000000000000000
 20
-110.0000000000000000
 30
0.0000000000000000
 11
110.9999999999999900
 21
-120.0000000000000000
 31
0.0000000000000000
  0
LINE
  8
0
 62
     1
 6
CONTINUOUS
 10
62.0000000000000000
 20
-30.0000000000000000
 30
0.0000000000000000
 11
65.9532025192496150
 21
-26.8980345195669060
 31
0.0000000000000000
  0
LINE
  8
0
 62
     1
 6
CONTINUOUS
 10
115.2606706910599100
 20
-76.1766471985359600
 30
0.0000000000000000
 11
112.0000000000000000
 21
-80.0000000000000000
 31
0.0000000000000000
  0
LINE
  8
0
 62
     1
 6
CONTINUOUS
 10
0.0000000000000000
 20
-110.0000000000000000
 30
0.0000000000000000
 11
12.0000000000000000
 21
-110.0000000000000000
 31
0.0000000000000000
  0
LINE
  8
0
 62
     1
 6
CONTINUOUS
 10
12.0000000000000000
 20
-110.0000000000000000
 30
0.0000000000000000
 11
13.0000000000000000
 21
-120.0000000000000000
 31
0.0000000000000000
  0
LINE
  8
0
 62
     1
 6
CONTINUOUS
 10
268.0000000000000000
 20
-110.0000000000000000
 30
0.0000000000000000
 11
267.0000000000000000
 21
-120.0000000000000000
 31
0.0000000000000000
  0
LINE
  8
0
 62
     1
 6
CONTINUOUS
 10
219.0000000000000000
 20
-20.0000000000000000
 30
0.0000000000000000
 11
218.0000000000000000
 21
-30.0000000000000000
 31
0.0000000000000000
  0
LINE
  8
0
 62
     1
 6
CONTINUOUS
 10
168.4000000000000100
 20
-80.0000000000000000
 30
0.0000000000000000
 11
158.4000000000000100
 21
-81.0000000000000000
 31
0.0000000000000000
  0
LINE
  8
0
 62
     1
 6
CONTINUOUS
 10
218.0000000000000000
 20
-30.0000000000000000
 30
0.0000000000000000
 11
210.0935949615007400
 21
-23.7960690391338190
 31
0.0000000000000000
  0
LINE
  8
0
 62
     1
 6
CONTINUOUS
 10
0.0000000000000000
 20
200.0000000000000000
 30
0.0000000000000000
 11
530.0000000000000000
 21
200.0000000000000000
 31
0.0000000000000000
  0
LINE
  8
0
 62
     1
 6
CONTINUOUS
 10
158.4000000000000100
 20
-109.0000000000000000
 30
0.0000000000000000
 11
168.4000000000000100
 21
-110.0000000000000000
 31
0.0000000000000000
  0
LINE
  8
0
 62
     1
 6
CONTINUOUS
 10
161.8786586178801800
 20
-72.3532943970718920
 30
0.0000000000000000
 11
168.4000000000000100
 21
-80.0000000000000000
 31
0.0000000000000000
  0
LINE
  8
0
 62
     1
 6
CONTINUOUS
 10
268.0000000000000000
 20
-30.0000000000000000
 30
0.0000000000000000
 11
280.0000000000000000
 21
-30.0000000000000000
 31
0.0000000000000000
  0
LINE
  8
0
 62
     1
 6
CONTINUOUS
 10
63.9741042125361830
 20
-48.9461280973614020
 30
0.0000000000000000
 11
62.1706359099588110
 21
-50.6774576678356890
 31
0.0000000000000000
  0
LINE
  8
0
 62
     1
 6
CONTINUOUS
 10
80.9532702823196360
 20
-65.9153576966031240
 30
0.0000000000000000
 11
79.1498019797422640
 21
-67.6466872670774110
 31
0.0000000000000000
  0
CIRCLE
  8
0
 62
     1
  6
CONTINUOUS
 10
30.0000000000000000
 20
304.0000000000000000
 30
0.0000000000000000
 40
1.5000000000000000
  0
CIRCLE
  8
0
 62
     1
  6
CONTINUOUS
 10
190.0000000000000000
 20
304.0000000000000000
 30
0.0000000000000000
 40
1.5000000000000000
  0
CIRCLE
  8
0
 62
     1
  6
CONTINUOUS
 10
340.0000000000000000
 20
304.0000000000000000
 30
0.0000000000000000
 40
1.5000000000000000
  0
CIRCLE
  8
0
 62
     1
  6
CONTINUOUS
 10
500.0000000000000000
 20
304.0000000000000000
 30
0.0000000000000000
 40
1.5000000000000000
  0
LINE
  8
0
 62
     1
 6
CONTINUOUS
 10
145.0000000000000000
 20
230.0000000000000000
 30
0.0000000000000000
 11
250.0000000000000000
 21
230.0000000000000000
 31
0.0000000000000000
  0
LINE
  8
0
 62
     1
 6
CONTINUOUS
 10
145.0000000000000000
 20
290.0000000000000000
 30
0.0000000000000000
 11
250.0000000000000000
 21
290.0000000000000000
 31
0.0000000000000000
  0
LINE
  8
0
 62
     1
 6
CONTINUOUS
 10
0.0000000000000000
 20
-30.0000000000000000
 30
0.0000000000000000
 11
12.0000000000000000
 21
-30.0000000000000000
 31
0.0000000000000000
  0
LINE
  8
0
 62
     1
 6
CONTINUOUS
 10
230.5000000000000300
 20
289.0000000000000000
 30
0.0000000000000000
 11
250.0000000000000000
 21
289.0000000000000000
 31
0.0000000000000000
  0
LINE
  8
0
 62
     1
 6
CONTINUOUS
 10
238.0000000000000000
 20
231.0000000000000000
 30
0.0000000000000000
 11
250.0000000000000000
 21
231.0000000000000000
 31
0.0000000000000000
  0
LINE
  8
0
 62
     1
 6
CONTINUOUS
 10
145.0000000000000000
 20
289.0000000000000000
 30
0.0000000000000000
 11
156.9999999999999700
 21
289.0000000000000600
 31
0.0000000000000000
  0
LINE
  8
0
 62
     1
 6
CONTINUOUS
 10
145.0000000000000000
 20
231.0000000000000000
 30
0.0000000000000000
 11
157.0000000000000000
 21
231.0000000000000000
 31
0.0000000000000000
  0
LINE
  8
0
 62
     1
 6
CONTINUOUS
 10
160.0000000000000900
 20
286.0000000000000600
 30
0.0000000000000000
 11
160.0000000000011100
 21
234.0000000000000600
 31
0.0000000000000000
  0
LINE
  8
0
 62
     1
 6
CONTINUOUS
 10
235.0000000000002000
 20
277.0000004255077800
 30
0.0000000000000000
 11
235.0000000000010500
 21
233.9999973871806800
 31
0.0000000000000000
  0
LINE
  8
0
 62
     1
 6
CONTINUOUS
 10
227.5000000000000000
 20
286.0000000000000000
 30
0.0000000000000000
 11
227.5000000000000300
 21
282.9999996406592100
 31
0.0000000000000000
  0
ARC
  8
0
 62
     1
  6
CONTINUOUS
 10
157.0000000000000000
 20
286.0000000000000000
 30
0.0000000000000000
 40
3.0000000000000040
 50
0.0000000000000000
 51
90.0000000000005400
  0
ARC
  8
0
 62
     1
  6
CONTINUOUS
 10
157.0000000000000000
 20
234.0000000000000000
 30
0.0000000000000000
 40
2.9999999999999840
 50
-90.0000000000000000
 51
0.0000000000010856
  0
ARC
  8
0
 62
     1
  6
CONTINUOUS
 10
238.0000000000000000
 20
234.0000000000000000
 30
0.0000000000000000
 40
2.9999999999999840
 50
179.9999500988295700
 51
-90.0000000000000000
  0
CIRCLE
  8
0
 62
     1
  6
CONTINUOUS
 10
340.0000000000000000
 20
206.0000000000000000
 30
0.0000000000000000
 40
1.5000000000000000
  0
CIRCLE
  8
0
 62
     1
  6
CONTINUOUS
 10
500.0000000000000000
 20
206.0000000000000000
 30
0.0000000000000000
 40
1.5000000000000000
  0
CIRCLE
  8
0
 62
     1
  6
CONTINUOUS
 10
157.0000000000000000
 20
284.5000000000000600
 30
0.0000000000000000
 40
1.5000000000000000
  0
CIRCLE
  8
0
 62
     1
  6
CONTINUOUS
 10
157.0000000000000000
 20
235.5000000000000000
 30
0.0000000000000000
 40
1.5000000000000000
  0
CIRCLE
  8
0
 62
     1
  6
CONTINUOUS
 10
238.0000000000000000
 20
235.5000000000000000
 30
0.0000000000000000
 40
1.5000000000000000
  0
CIRCLE
  8
0
 62
     1
  6
CONTINUOUS
 10
231.5000000000000000
 20
284.5000000000000000
 30
0.0000000000000000
 40
1.5000000000000000
  0
LINE
  8
0
 62
     1
 6
CONTINUOUS
 10
230.5000000000000300
 20
280.0000000000000000
 30
0.0000000000000000
 11
232.0000000000002300
 21
280.0000000000000600
 31
0.0000000000000000
  0
ARC
  8
0
 62
     1
  6
CONTINUOUS
 10
230.5000000000000000
 20
286.0000000000000000
 30
0.0000000000000000
 40
3.0000000000000040
 50
89.9999999999994600
 51
180.0000000000000000
  0
ARC
  8
0
 62
     1
  6
CONTINUOUS
 10
230.5000000000000000
 20
283.0000000000000000
 30
0.0000000000000000
 40
3.0000000000000040
 50
-179.9999931370964800
 51
-89.9999999999994600
  0
ARC
  8
0
 62
     1
  6
CONTINUOUS
 10
232.0000000000002300
 20
277.0000000000000000
 30
0.0000000000000000
 40
2.9999999999999938
 50
-0.0000081265977785
 51
90.0000000000000000
  0
CIRCLE
  8
0
 62
     1
  6
CONTINUOUS
 10
190.0000000000000000
 20
206.0000000000000000
 30
0.0000000000000000
 40
1.5000000000000000
  0
CIRCLE
  8
0
 62
     1
  6
CONTINUOUS
 10
30.0000000000000000
 20
206.0000000000000000
 30
0.0000000000000000
 40
1.5000000000000000
  0
LINE
  8
0
 62
     1
 6
CONTINUOUS
 10
253.0000000000000600
 20
-64.9999999999999290
 30
0.0000000000000000
 11
253.0000000000000000
 21
-79.0000000000000140
 31
0.0000000000000000
  0
LINE
  8
0
 62
     1
 6
CONTINUOUS
 10
229.0000000000000000
 20
-61.9999999999999860
 30
0.0000000000000000
 11
250.0000000000000000
 21
-61.9999999999999150
 31
0.0000000000000000
  0
LINE
  8
0
 62
     1
 6
CONTINUOUS
 10
228.9999999999999400
 20
-82.0000000000000570
 30
0.0000000000000000
 11
250.0000000000000000
 21
-82.0000000000001140
 31
0.0000000000000000
  0
LINE
  8
0
 62
     1
 6
CONTINUOUS
 10
225.9999999999999400
 20
-64.9999999999999290
 30
0.0000000000000000
 11
226.0000000000000000
 21
-79.0000000000000140
 31
0.0000000000000000
  0
CIRCLE
  8
0
 62
     1
  6
CONTINUOUS
 10
219.5000000000000000
 20
-72.0000000000000000
 30
0.0000000000000000
 40
1.5000000000000000
  0
CIRCLE
  8
0
 62
     1
  6
CONTINUOUS
 10
259.5000000000000000
 20
-72.0000000000000000
 30
0.0000000000000000
 40
1.5000000000000000
  0
ARC
  8
0
 62
     1
  6
CONTINUOUS
 10
229.0000000000000000
 20
-65.0000000000000000
 30
0.0000000000000000
 40
2.9999999999999942
 50
90.0000000000000000
 51
179.9999999999986400
  0
ARC
  8
0
 62
     1
  6
CONTINUOUS
 10
229.0000000000000000
 20
-79.0000000000000000
 30
0.0000000000000000
 40
2.9999999999999942
 50
179.9999763991093600
 51
-90.0000000000010940
  0
ARC
  8
0
 62
     1
  6
CONTINUOUS
 10
250.0000000000000000
 20
-79.0000000000000000
 30
0.0000000000000000
 40
2.9999999999999942
 50
-90.0000000000010940
 51
0.0000297430711966
  0
ARC
  8
0
 62
     1
  6
CONTINUOUS
 10
250.0000000000000000
 20
-65.0000000000000000
 30
0.0000000000000000
 40
2.9999999999999942
 50
0.0000000000013570
 51
90.0000000000000000
  0
CIRCLE
  8
0
 62
     1
  6
CONTINUOUS
 10
274.0000000000000000
 20
-45.0000000000000000
 30
0.0000000000000000
 40
1.5000000000000000
  0
CIRCLE
  8
0
 62
     1
  6
CONTINUOUS
 10
274.0000000000000000
 20
-95.0000000000000000
 30
0.0000000000000000
 40
1.5000000000000000
  0
CIRCLE
  8
0
 62
     1
  6
CONTINUOUS
 10
5.9999999999999991
 20
-45.0000000000000000
 30
0.0000000000000000
 40
1.5000000000000000
  0
CIRCLE
  8
0
 62
     1
  6
CONTINUOUS
 10
5.9999999999999991
 20
-95.0000000000000000
 30
0.0000000000000000
 40
1.5000000000000000
  0
LINE
  8
0
 62
     1
 6
CONTINUOUS
 10
13.0000000000000000
 20
-120.0000000000000000
 30
0.0000000000000000
 11
110.9999999999999900
 21
-120.0000000000000000
 31
0.0000000000000000
  0
LINE
  8
0
 62
     1
 6
CONTINUOUS
 10
65.9532025192496150
 20
-26.8980345195669060
 30
0.0000000000000000
 11
115.2606706910599100
 21
-76.1766471985359600
 31
0.0000000000000000
  0
LINE
  8
0
 62
     1
 6
CONTINUOUS
 10
169.4000000000000100
 20
-120.0000000000000000
 30
0.0000000000000000
 11
267.0000000000000000
 21
-120.0000000000000000
 31
0.0000000000000000
  0
LINE
  8
0
 62
     1
 6
CONTINUOUS
 10
210.0935949615007400
 20
-23.7960690391338190
 30
0.0000000000000000
 11
161.8786586178801800
 21
-72.3532943970718920
 31
0.0000000000000000
  0
CIRCLE
  8
0
 62
     1
  6
CONTINUOUS
 10
370.0000000000000000
 20
55.0000000000000000
 30
0.0000000000000000
 40
1.5000000000000000
  0
ENDSEC
  0
EOF
