  0
SECTION
  2
HEADER
  9
$ACADVER
 1
AC1009
  9
$EXTMIN
 10
-123.0999999999999900
 20
-29.0070000000000010
  9
$EXTMAX
 10
341.1000000000000200
 20
509.2670000000000000
  9
$LIMMIN
 10
-123.0999999999999900
 20
-29.0070000000000010
  9
$LIMMAX
 10
341.1000000000000200
 20
509.2670000000000000
  9
$LTSCALE
 40
2.5000000000000000
  9
$LUPREC
 70
     2
  9
$LUNITS
 70
     2
  9
$AUPREC
 70
     2
  9
$TEXTSIZE
 40
3.0000000000000000
  9
$DIMSCALE
 40
1.0000000000000000
  9
$DIMLFAC
 40
1.0000000000000000
  9
$DIMTXT
 40
5.0000000000000000
  9
$DIMEXO
 40
7.5000000000000000
  9
$DIMASZ
 40
5.0000000000000000
  9
$DIMEXE
 40
5.0000000000000000
  9
$DIMSE1
 70
     0
  9
$DIMSE2
 70
     0
  9
$AUNITS
 70
     0
  9
$DIMTAD
 70
     1
  9
$DIMTIH
 70
     0
  9
$DIMTOH
 70
     0
  9
$FILLMODE
 70
     1
  0
ENDSEC
  0
SECTION
  2
TABLES
  0
TABLE
  2
LTYPE
 70
     0
  0
LTYPE
  2
CONTINUOUS
 70
    64
  3
Solid line
 72
    65
 73
     0
 40
0.0
  0
ENDTAB
  0
TABLE
  2
LAYER
 70
     0
  0
LAYER
  2
0
 70
  64
  62
7
  6
CONTINUOUS
  0
ENDTAB
  0
ENDSEC
  0
SECTION
  2
BLOCKS
  0
ENDSEC
  0
SECTION
  2
ENTITIES
  0
LINE
  8
0
 62
     9
 6
CONTINUOUS
 10
-70.0000000000000000
 20
0.0000000000000000
 30
0.0000000000000000
 11
70.0000000000000000
 21
0.0000000000000000
 31
0.0000000000000000
  0
LINE
  8
0
 62
     9
 6
CONTINUOUS
 10
102.0000000000000000
 20
424.0000000000000000
 30
0.0000000000000000
 11
102.0000000000000000
 21
0.0000000000000000
 31
0.0000000000000000
  0
LINE
  8
0
 62
     9
 6
CONTINUOUS
 10
-102.0000000000000000
 20
424.0000000000000000
 30
0.0000000000000000
 11
-102.0000000000000000
 21
0.0000000000000000
 31
0.0000000000000000
  0
LINE
  8
0
 62
     9
 6
CONTINUOUS
 10
-102.0000000000000000
 20
424.0000000000000000
 30
0.0000000000000000
 11
-70.0000000000000000
 21
424.0000000000000000
 31
0.0000000000000000
  0
LINE
  8
0
 62
     9
 6
CONTINUOUS
 10
70.0000000000000000
 20
424.0000000000000000
 30
0.0000000000000000
 11
102.0000000000000000
 21
424.0000000000000000
 31
0.0000000000000000
  0
CIRCLE
  8
0
 62
     9
  6
CONTINUOUS
 10
-50.0000000000000000
 20
418.0000000000000000
 30
0.0000000000000000
 40
1.5000000000000000
  0
CIRCLE
  8
0
 62
     9
  6
CONTINUOUS
 10
50.0000000000000000
 20
418.0000000000000000
 30
0.0000000000000000
 40
1.5000000000000000
  0
CIRCLE
  8
0
 62
     9
  6
CONTINUOUS
 10
-50.0000000000000000
 20
6.0000000000000000
 30
0.0000000000000000
 40
1.5000000000000000
  0
CIRCLE
  8
0
 62
     9
  6
CONTINUOUS
 10
50.0000000000000000
 20
6.0000000000000000
 30
0.0000000000000000
 40
1.5000000000000000
  0
LINE
  8
0
 62
     9
 6
CONTINUOUS
 10
-102.0000000000000000
 20
0.0000000000000000
 30
0.0000000000000000
 11
-70.0000000000000000
 21
0.0000000000000000
 31
0.0000000000000000
  0
CIRCLE
  8
0
 62
     9
  6
CONTINUOUS
 10
0.0000000000000000
 20
65.0000000000000000
 30
0.0000000000000000
 40
6.0000000000000000
  0
LINE
  8
0
 62
     9
 6
CONTINUOUS
 10
70.0000000000000000
 20
0.0000000000000000
 30
0.0000000000000000
 11
102.0000000000000000
 21
0.0000000000000000
 31
0.0000000000000000
  0
LINE
  8
0
 62
     9
 6
CONTINUOUS
 10
-70.0000000000000000
 20
424.0000000000000000
 30
0.0000000000000000
 11
70.0000000000000000
 21
424.0000000000000000
 31
0.0000000000000000
  0
LINE
  8
0
 62
    10
 6
CONTINUOUS
 10
-7.0462257954310417
 20
239.4320535209296300
 30
0.0000000000000000
 11
-8.4660758927366828
 21
238.9493044878457200
 31
0.0000000000000000
  0
LINE
  8
0
 62
     2
 6
CONTINUOUS
 10
28.4298203422739560
 20
227.0465642415992400
 30
0.0000000000000000
 11
28.4298203422738990
 21
267.0465642415992400
 31
0.0000000000000000
  0
LINE
  8
0
 62
    10
 6
CONTINUOUS
 10
19.9298203422739560
 20
237.0215592564124400
 30
0.0000000000000568
 11
19.9298203422739560
 21
249.3862734606780100
 31
0.0000000000000568
  0
LINE
  8
0
 62
     2
 6
CONTINUOUS
 10
-1.5701796577260438
 20
217.0465642415993000
 30
0.0000000000000000
 11
-1.5701796577260438
 21
256.8465642415993100
 31
0.0000000000000000
  0
LINE
  8
0
 62
    10
 6
CONTINUOUS
 10
-30.3903387749556370
 20
236.9465236692478200
 30
0.0000000000000000
 11
-28.9701796577260780
 21
237.4293777691058800
 31
0.0000000000000000
  0
LINE
  8
0
 62
     2
 6
CONTINUOUS
 10
-31.5701796577260440
 20
227.0465642415992400
 30
0.0000000000000000
 11
-1.5701796577260438
 21
217.0465642415993000
 31
0.0000000000000000
  0
LINE
  8
0
 62
     2
 6
CONTINUOUS
 10
-1.5701796577260438
 20
217.0465642415993000
 30
0.0000000000000000
 11
28.4298203422739560
 21
227.0465642415992400
 31
0.0000000000000000
  0
LINE
  8
0
 62
     2
 6
CONTINUOUS
 10
28.4298203422738990
 20
267.0465642415992400
 30
0.0000000000000000
 11
-1.5701796577260438
 21
256.8465642415993100
 31
0.0000000000000000
  0
POLYLINE
  8
0
 62
    10
  6
CONTINUOUS
 66
     1
 10
0.0
 20
0.0
 30
0.0
  0
VERTEX
  8
0
 62
    10
  6
CONTINUOUS
 10
-13.1672072440239380
 20
243.7483097065556300
 30
0.0000000000000000
 42
0.0962714227457681
  0
VERTEX
  8
0
 62
    10
  6
CONTINUOUS
 10
-12.3456424500647410
 20
244.5981818454389400
 30
0.0000000000000000
 42
0.0842949483483358
  0
VERTEX
  8
0
 62
    10
  6
CONTINUOUS
 10
-11.8431824870311040
 20
245.7588205973792400
 30
0.0000000000000000
 42
0.0751946377479707
  0
VERTEX
  8
0
 62
    10
  6
CONTINUOUS
 10
-11.7193575452404290
 20
247.0927164076338200
 30
0.0000000000000000
 42
0.0713034195995400
  0
VERTEX
  8
0
 62
    10
  6
CONTINUOUS
 10
-11.9888380917809490
 20
248.4418326617656000
 30
0.0000000000000000
 42
0.0729962665864166
  0
VERTEX
  8
0
 62
    10
  6
CONTINUOUS
 10
-12.6196967505378820
 20
249.6463294654994900
 30
0.0000000000000000
 42
0.0801535693985263
  0
VERTEX
  8
0
 62
    10
  6
CONTINUOUS
 10
-13.5371909772646400
 20
250.5635010726302000
 30
0.0000000000000000
 42
0.0915100786419852
  0
VERTEX
  8
0
 62
    10
  6
CONTINUOUS
 10
-14.6326183678882770
 20
251.0846833022416100
 30
0.0000000000000000
 42
0.0915100786419852
  0
SEQEND
  0
LINE
  8
0
 62
    10
 6
CONTINUOUS
 10
16.4108921320568580
 20
259.6850234547199000
 30
0.0000000000000568
 11
0.9298203422739562
 21
254.5246661914589500
 31
0.0000000000000000
  0
LINE
  8
0
 62
    10
 6
CONTINUOUS
 10
-20.5320299752713710
 20
246.0094586742827100
 30
0.0000000000000000
 11
-21.9521890925009300
 21
245.5266045744246500
 31
0.0000000000000000
  0
POLYLINE
  8
0
 62
    10
  6
CONTINUOUS
 66
     1
 10
0.0
 20
0.0
 30
0.0
  0
VERTEX
  8
0
 62
    10
  6
CONTINUOUS
 10
-24.5128603117595820
 20
259.2561404292594600
 30
0.0000000000000000
 42
-0.0592563515928649
  0
VERTEX
  8
0
 62
    10
  6
CONTINUOUS
 10
-22.7681444702333100
 20
259.4339898579893900
 30
0.0000000000000000
 42
-0.0555643532093193
  0
VERTEX
  8
0
 62
    10
  6
CONTINUOUS
 10
-20.9714105647386400
 20
259.2021693548618900
 30
0.0000000000000000
 42
-0.0555643532093193
  0
SEQEND
  0
LINE
  8
0
 62
    10
 6
CONTINUOUS
 10
-11.7818556308400840
 20
257.0952248491635700
 30
0.0000000000000000
 11
-19.5512514475090030
 21
259.6850234547199000
 31
0.0000000000000000
  0
LINE
  8
0
 62
    10
 6
CONTINUOUS
 10
8.3499794595035155
 20
228.9930706511528300
 30
0.0000000000000000
 11
16.9157979221163830
 21
231.8483434720237700
 31
0.0000000000000568
  0
POLYLINE
  8
0
 62
    10
  6
CONTINUOUS
 66
     1
 10
0.0
 20
0.0
 30
0.0
  0
VERTEX
  8
0
 62
    10
  6
CONTINUOUS
 10
-15.8349101095666370
 20
243.4875115801132200
 30
0.0000000000000000
 42
0.0793283458470224
  0
VERTEX
  8
0
 62
    10
  6
CONTINUOUS
 10
-14.9121549892758210
 20
243.2695366960157900
 30
0.0000000000000000
 42
0.0846512212676754
  0
VERTEX
  8
0
 62
    10
  6
CONTINUOUS
 10
-13.9992631380595660
 20
243.3587821991476700
 30
0.0000000000000000
 42
0.0843854041568984
  0
VERTEX
  8
0
 62
    10
  6
CONTINUOUS
 10
-13.1672072440239400
 20
243.7483097065556300
 30
0.0000000000000000
 42
0.0843854041568984
  0
SEQEND
  0
LINE
  8
0
 62
    10
 6
CONTINUOUS
 10
-22.9242457778696010
 20
235.4140664758203300
 30
0.0000000000000000
 11
-28.9701796577260780
 21
237.4293777691058800
 31
0.0000000000000000
  0
LINE
  8
0
 62
    10
 6
CONTINUOUS
 10
-24.4202449313569900
 20
249.4961299716638300
 30
0.0000000000000000
 11
-23.0000858141274310
 21
249.9789840715220100
 31
0.0000000000000000
  0
LINE
  8
0
 62
    10
 6
CONTINUOUS
 10
-20.0561572375684700
 20
231.8483434720238300
 30
0.0000000000000000
 11
-14.4147509923374170
 21
229.9678747236134200
 31
0.0000000000000000
  0
POLYLINE
  8
0
 62
    10
  6
CONTINUOUS
 66
     1
 10
0.0
 20
0.0
 30
0.0
  0
VERTEX
  8
0
 62
    10
  6
CONTINUOUS
 10
-13.1672072440239380
 20
229.7458187501976600
 30
0.0000000000000000
 42
0.0962714227457681
  0
VERTEX
  8
0
 62
    10
  6
CONTINUOUS
 10
-12.3456424500647410
 20
230.5956908890809700
 30
0.0000000000000000
 42
0.0842949483483358
  0
VERTEX
  8
0
 62
    10
  6
CONTINUOUS
 10
-11.8431824870311040
 20
231.7563296410212700
 30
0.0000000000000000
 42
0.0751946377479707
  0
VERTEX
  8
0
 62
    10
  6
CONTINUOUS
 10
-11.7193575452404290
 20
233.0902254512758400
 30
0.0000000000000000
 42
0.0713034195995400
  0
VERTEX
  8
0
 62
    10
  6
CONTINUOUS
 10
-11.9888380917809490
 20
234.4393417054076300
 30
0.0000000000000000
 42
0.0729962665864166
  0
VERTEX
  8
0
 62
    10
  6
CONTINUOUS
 10
-12.6196967505378820
 20
235.6438385091415200
 30
0.0000000000000000
 42
0.0801535693985263
  0
VERTEX
  8
0
 62
    10
  6
CONTINUOUS
 10
-13.5371909772646400
 20
236.5610101162722300
 30
0.0000000000000000
 42
0.0915100786419852
  0
VERTEX
  8
0
 62
    10
  6
CONTINUOUS
 10
-14.6326183678882770
 20
237.0821923458836400
 30
0.0000000000000000
 42
0.0915100786419852
  0
SEQEND
  0
LINE
  8
0
 62
    10
 6
CONTINUOUS
 10
-14.4147509923371330
 20
243.9703656799712800
 30
0.0000000000000000
 11
-20.5320299752713710
 21
246.0094586742827100
 31
0.0000000000000000
  0
POLYLINE
  8
0
 62
    10
  6
CONTINUOUS
 66
     1
 10
0.0
 20
0.0
 30
0.0
  0
VERTEX
  8
0
 62
    10
  6
CONTINUOUS
 10
27.2499794595035850
 20
251.4861612528636100
 30
0.0000000000001040
 42
0.0961840732273403
  0
VERTEX
  8
0
 62
    10
  6
CONTINUOUS
 10
26.3965002823607050
 20
255.0688605243018700
 30
0.0000000000000884
 42
0.1112200267392830
  0
VERTEX
  8
0
 62
    10
  6
CONTINUOUS
 10
24.3340476898776040
 20
257.7954062353997500
 30
0.0000000000000680
 42
0.1188804413857264
  0
VERTEX
  8
0
 62
    10
  6
CONTINUOUS
 10
21.3725009963075440
 20
259.2561404292594000
 30
0.0000000000000460
 42
0.1188804413857264
  0
SEQEND
  0
LINE
  8
0
 62
     2
 6
CONTINUOUS
 10
-31.5701796577260440
 20
227.0465642415992400
 30
0.0000000000000000
 11
-31.5701796577261010
 21
267.0465642415992400
 31
0.0000000000000000
  0
POLYLINE
  8
0
 62
    10
  6
CONTINUOUS
 66
     1
 10
0.0
 20
0.0
 30
0.0
  0
VERTEX
  8
0
 62
    10
  6
CONTINUOUS
 10
-23.2309545746178610
 20
225.9458134584355100
 30
0.0000000000000000
 42
-0.0751279147577705
  0
VERTEX
  8
0
 62
    10
  6
CONTINUOUS
 10
-25.9137090337223340
 20
227.5153215017270400
 30
0.0000000000000000
 42
-0.0687100136618153
  0
VERTEX
  8
0
 62
    10
  6
CONTINUOUS
 10
-28.1446831252939270
 20
229.8795147357126300
 30
0.0000000000000000
 42
-0.0668002051557395
  0
VERTEX
  8
0
 62
    10
  6
CONTINUOUS
 10
-29.6907461585243020
 20
232.7913414335588700
 30
0.0000000000000000
 42
-0.0695113860370760
  0
VERTEX
  8
0
 62
    10
  6
CONTINUOUS
 10
-30.3903387749556730
 20
235.9465236692478000
 30
0.0000000000000000
 42
-0.0695113860370760
  0
SEQEND
  0
LINE
  8
0
 62
    10
 6
CONTINUOUS
 10
-21.9521890925009300
 20
239.5220492540879000
 30
0.0000000000000000
 11
-21.9521890925009300
 21
245.5266045744246500
 31
0.0000000000000000
  0
LINE
  8
0
 62
     2
 6
CONTINUOUS
 10
-1.5701796577260438
 20
256.8465642415993100
 30
0.0000000000000000
 11
-31.5701796577261010
 21
267.0465642415992400
 31
0.0000000000000000
  0
LINE
  8
0
 62
    10
 6
CONTINUOUS
 10
0.9298203422739562
 20
220.5151289584062500
 30
0.0000000000000000
 11
0.9298203422739562
 21
254.5246661914589500
 31
0.0000000000000000
  0
POLYLINE
  8
0
 62
    10
  6
CONTINUOUS
 66
     1
 10
0.0
 20
0.0
 30
0.0
  0
VERTEX
  8
0
 62
    10
  6
CONTINUOUS
 10
-14.4147509923370780
 20
243.9703656799712800
 30
0.0000000000000000
 42
0.1088310978982560
  0
VERTEX
  8
0
 62
    10
  6
CONTINUOUS
 10
-13.1671694641936680
 20
243.7485512530814200
 30
0.0000000000000000
 42
0.1088310978982560
  0
SEQEND
  0
LINE
  8
0
 62
    10
 6
CONTINUOUS
 10
-14.6326183678881990
 20
251.0846833022416700
 30
0.0000000000000000
 11
-19.2527441035531980
 21
252.6247252141300200
 31
0.0000000000000000
  0
POLYLINE
  8
0
 62
    10
  6
CONTINUOUS
 66
     1
 10
0.0
 20
0.0
 30
0.0
  0
VERTEX
  8
0
 62
    10
  6
CONTINUOUS
 10
-14.4147509923370780
 20
229.9678747236133100
 30
0.0000000000000000
 42
0.1088310978982560
  0
VERTEX
  8
0
 62
    10
  6
CONTINUOUS
 10
-13.1671694641936680
 20
229.7460602967234400
 30
0.0000000000000000
 42
0.1088310978982560
  0
SEQEND
  0
POLYLINE
  8
0
 62
    10
  6
CONTINUOUS
 66
     1
 10
0.0
 20
0.0
 30
0.0
  0
VERTEX
  8
0
 62
    10
  6
CONTINUOUS
 10
-16.8760293979428870
 20
223.8275050662105300
 30
0.0000000000000000
 42
0.0964662847866912
  0
VERTEX
  8
0
 62
    10
  6
CONTINUOUS
 10
-13.4424875724929930
 20
223.1150312400552600
 30
0.0000000000000000
 42
0.1095645066224291
  0
VERTEX
  8
0
 62
    10
  6
CONTINUOUS
 10
-10.2286900818897840
 20
223.7932084188701400
 30
0.0000000000000000
 42
0.1095645066224291
  0
SEQEND
  0
POLYLINE
  8
0
 62
    10
  6
CONTINUOUS
 66
     1
 10
0.0
 20
0.0
 30
0.0
  0
VERTEX
  8
0
 62
    10
  6
CONTINUOUS
 10
-7.0462257954309333
 20
239.4320535209295700
 30
0.0000000000000000
 42
0.1044283187363111
  0
VERTEX
  8
0
 62
    10
  6
CONTINUOUS
 10
-5.1768142475674139
 20
241.9951879837811100
 30
0.0000000000000000
 42
0.0920419091927318
  0
VERTEX
  8
0
 62
    10
  6
CONTINUOUS
 10
-4.3819401144408658
 20
245.2849674349577400
 30
0.0000000000000000
 42
0.0806716481310198
  0
VERTEX
  8
0
 62
    10
  6
CONTINUOUS
 10
-4.7627781257375226
 20
248.8826557087838600
 30
0.0000000000000000
 42
0.0745823502314413
  0
VERTEX
  8
0
 62
    10
  6
CONTINUOUS
 10
-6.2708537101493178
 20
252.3303247844192800
 30
0.0000000000000000
 42
0.0746765238623567
  0
VERTEX
  8
0
 62
    10
  6
CONTINUOUS
 10
-8.7142130309107699
 20
255.1891416790834900
 30
0.0000000000000000
 42
0.0809471431955178
  0
VERTEX
  8
0
 62
    10
  6
CONTINUOUS
 10
-11.7818556308400350
 20
257.0952248491635700
 30
0.0000000000000000
 42
0.0809471431955178
  0
SEQEND
  0
POLYLINE
  8
0
 62
    10
  6
CONTINUOUS
 66
     1
 10
0.0
 20
0.0
 30
0.0
  0
VERTEX
  8
0
 62
    10
  6
CONTINUOUS
 10
-10.2284200743965080
 20
223.7932476733771800
 30
0.0000000000000000
 42
0.0998976283014870
  0
VERTEX
  8
0
 62
    10
  6
CONTINUOUS
 10
-7.6242007242700893
 20
224.9661632424085600
 30
0.0000000000000000
 42
0.0982109287964126
  0
VERTEX
  8
0
 62
    10
  6
CONTINUOUS
 10
-5.6648996232476874
 20
227.0788495403250200
 30
0.0000000000000000
 42
0.0888529082994325
  0
VERTEX
  8
0
 62
    10
  6
CONTINUOUS
 10
-4.5613024647913640
 20
229.9040193746977800
 30
0.0000000000000000
 42
0.0781799268128065
  0
VERTEX
  8
0
 62
    10
  6
CONTINUOUS
 10
-4.4321365298823796
 20
233.1377350902191900
 30
0.0000000000000000
 42
0.0706806143609079
  0
VERTEX
  8
0
 62
    10
  6
CONTINUOUS
 10
-5.2912977588370325
 20
236.4321068147304200
 30
0.0000000000000000
 42
0.0678015183511919
  0
VERTEX
  8
0
 62
    10
  6
CONTINUOUS
 10
-7.0463557971036801
 20
239.4327191762855600
 30
0.0000000000000000
 42
0.0678015183511919
  0
SEQEND
  0
LINE
  8
0
 62
    10
 6
CONTINUOUS
 10
-15.8349101095666920
 20
243.4875115801132200
 30
0.0000000000000000
 11
-21.9521890925009300
 21
245.5266045744246500
 31
0.0000000000000000
  0
LINE
  8
0
 62
    10
 6
CONTINUOUS
 10
-14.6326183678882560
 20
237.0821923458837000
 30
0.0000000000000000
 11
-21.9521890925009300
 21
239.5220492540879000
 31
0.0000000000000000
  0
POLYLINE
  8
0
 62
    10
  6
CONTINUOUS
 66
     1
 10
0.0
 20
0.0
 30
0.0
  0
VERTEX
  8
0
 62
    10
  6
CONTINUOUS
 10
-15.8349101095666370
 20
229.4850206237552500
 30
0.0000000000000000
 42
0.0793283458470224
  0
VERTEX
  8
0
 62
    10
  6
CONTINUOUS
 10
-14.9121549892758210
 20
229.2670457396578200
 30
0.0000000000000000
 42
0.0846512212676754
  0
VERTEX
  8
0
 62
    10
  6
CONTINUOUS
 10
-13.9992631380595660
 20
229.3562912427896900
 30
0.0000000000000000
 42
0.0843854041568984
  0
VERTEX
  8
0
 62
    10
  6
CONTINUOUS
 10
-13.1672072440239400
 20
229.7458187501976600
 30
0.0000000000000000
 42
0.0843854041568984
  0
SEQEND
  0
LINE
  8
0
 62
    10
 6
CONTINUOUS
 10
-21.4763163547980300
 20
231.3654893721657700
 30
0.0000000000000000
 11
-15.8349101095669770
 21
229.4850206237553600
 31
0.0000000000000000
  0
LINE
  8
0
 62
    10
 6
CONTINUOUS
 10
-23.2309545746176700
 20
225.9458134584355700
 30
0.0000000000000000
 11
-16.8760293979423750
 21
223.8275050662103400
 31
0.0000000000000000
  0
POLYLINE
  8
0
 62
    10
  6
CONTINUOUS
 66
     1
 10
0.0
 20
0.0
 30
0.0
  0
VERTEX
  8
0
 62
    10
  6
CONTINUOUS
 10
-10.2286900818897840
 20
223.7932084188701400
 30
0.0000000000000000
 42
0.1097440452234063
  0
VERTEX
  8
0
 62
    10
  6
CONTINUOUS
 10
-7.7452273502514144
 20
225.6868518160532300
 30
0.0000000000000000
 42
0.1013622734194784
  0
VERTEX
  8
0
 62
    10
  6
CONTINUOUS
 10
-6.2024684100260714
 20
228.5519005366352000
 30
0.0000000000000000
 42
0.0883470860725116
  0
VERTEX
  8
0
 62
    10
  6
CONTINUOUS
 10
-5.7993877648118168
 20
232.0188401787880500
 30
0.0000000000000000
 42
0.0784134787031307
  0
VERTEX
  8
0
 62
    10
  6
CONTINUOUS
 10
-6.5879720012362348
 20
235.6405285634484700
 30
0.0000000000000000
 42
0.0744024685579972
  0
VERTEX
  8
0
 62
    10
  6
CONTINUOUS
 10
-8.4665149143332457
 20
238.9498650764275000
 30
0.0000000000000000
 42
0.0744024685579972
  0
SEQEND
  0
POLYLINE
  8
0
 62
    10
  6
CONTINUOUS
 66
     1
 10
0.0
 20
0.0
 30
0.0
  0
VERTEX
  8
0
 62
    10
  6
CONTINUOUS
 10
-8.4663849126604926
 20
238.9491994210715100
 30
0.0000000000000000
 42
0.1044283187363111
  0
VERTEX
  8
0
 62
    10
  6
CONTINUOUS
 10
-6.5969733647969733
 20
241.5123338839230500
 30
0.0000000000000000
 42
0.0920419091927318
  0
VERTEX
  8
0
 62
    10
  6
CONTINUOUS
 10
-5.8020992316704252
 20
244.8021133350996800
 30
0.0000000000000000
 42
0.0806716481310198
  0
VERTEX
  8
0
 62
    10
  6
CONTINUOUS
 10
-6.1829372429670819
 20
248.3998016089258000
 30
0.0000000000000000
 42
0.0745823502314413
  0
VERTEX
  8
0
 62
    10
  6
CONTINUOUS
 10
-7.6910128273788771
 20
251.8474706845612200
 30
0.0000000000000000
 42
0.0746765238623567
  0
VERTEX
  8
0
 62
    10
  6
CONTINUOUS
 10
-10.1343721481403290
 20
254.7062875792254300
 30
0.0000000000000000
 42
0.0809471431955178
  0
VERTEX
  8
0
 62
    10
  6
CONTINUOUS
 10
-13.2020147480695940
 20
256.6123707493055100
 30
0.0000000000000000
 42
0.0809471431955178
  0
SEQEND
  0
LINE
  8
0
 62
    10
 6
CONTINUOUS
 10
-13.2020147480696440
 20
256.6123707493055100
 30
0.0000000000000000
 11
-20.9714105647386760
 21
259.2021693548618400
 31
0.0000000000000000
  0
POLYLINE
  8
0
 62
    10
  6
CONTINUOUS
 66
     1
 10
0.0
 20
0.0
 30
0.0
  0
VERTEX
  8
0
 62
    10
  6
CONTINUOUS
 10
21.3730288401799840
 20
259.2560117695345500
 30
0.0000000000000559
 42
0.0873723067740533
  0
VERTEX
  8
0
 62
    10
  6
CONTINUOUS
 10
18.9774966019288270
 20
259.8897573424473000
 30
0.0000000000000397
 42
0.0810543925166635
  0
VERTEX
  8
0
 62
    10
  6
CONTINUOUS
 10
16.4108921320569120
 20
259.6850234547199500
 30
0.0000000000000249
 42
0.0810543925166635
  0
SEQEND
  0
LINE
  8
0
 62
    10
 6
CONTINUOUS
 10
2.3499794595035155
 20
254.0418120916008900
 30
0.0000000000000000
 11
0.9298203422739562
 21
254.5246661914589500
 31
0.0000000000000000
  0
LINE
  8
0
 62
    10
 6
CONTINUOUS
 10
0.9298203422739562
 20
220.5151289584062500
 30
0.0000000000000000
 11
2.3499794595035155
 21
220.0322748585481900
 31
0.0000000000000000
  0
LINE
  8
0
 62
    10
 6
CONTINUOUS
 10
2.3499794595035155
 20
220.0322748585481900
 30
0.0000000000000000
 11
19.1472391688104150
 21
225.6313614283171800
 31
0.0000000000000568
  0
POLYLINE
  8
0
 62
    10
  6
CONTINUOUS
 66
     1
 10
0.0
 20
0.0
 30
0.0
  0
VERTEX
  8
0
 62
    10
  6
CONTINUOUS
 10
19.1472391688104440
 20
225.6313614283170900
 30
0.0000000000000926
 42
0.0842533447558430
  0
VERTEX
  8
0
 62
    10
  6
CONTINUOUS
 10
22.1371550773947660
 20
227.0421706663771600
 30
0.0000000000001056
 42
0.0755231486511930
  0
VERTEX
  8
0
 62
    10
  6
CONTINUOUS
 10
24.6758327179094220
 20
229.4415684282789700
 30
0.0000000000001127
 42
0.0723848961835255
  0
VERTEX
  8
0
 62
    10
  6
CONTINUOUS
 10
26.4525875392485470
 20
232.5359152992799900
 30
0.0000000000001129
 42
0.0751173455697873
  0
VERTEX
  8
0
 62
    10
  6
CONTINUOUS
 10
27.2499794595035850
 20
235.9465236692478500
 30
0.0000000000001063
 42
0.0751173455697873
  0
SEQEND
  0
LINE
  8
0
 62
    10
 6
CONTINUOUS
 10
27.2499794595035500
 20
235.9465236692478800
 30
0.0000000000000568
 11
27.2499794595035500
 21
251.4861612528636100
 31
0.0000000000000568
  0
POLYLINE
  8
0
 62
    10
  6
CONTINUOUS
 66
     1
 10
0.0
 20
0.0
 30
0.0
  0
VERTEX
  8
0
 62
    10
  6
CONTINUOUS
 10
21.3725009963075440
 20
259.2561404292594000
 30
0.0000000000000460
 42
0.0592563515928647
  0
VERTEX
  8
0
 62
    10
  6
CONTINUOUS
 10
19.6277851547812650
 20
259.4339898579893900
 30
0.0000000000000350
 42
0.0555643532093193
  0
VERTEX
  8
0
 62
    10
  6
CONTINUOUS
 10
17.8310512492865850
 20
259.2021693548618900
 30
0.0000000000000249
 42
0.0555643532093193
  0
SEQEND
  0
LINE
  8
0
 62
    10
 6
CONTINUOUS
 10
2.3499794595035155
 20
220.0322748585481900
 30
0.0000000000000000
 11
2.3499794595035155
 21
254.0418120916008900
 31
0.0000000000000000
  0
LINE
  8
0
 62
    10
 6
CONTINUOUS
 10
17.8310512492865310
 20
259.2021693548619500
 30
0.0000000000000568
 11
2.3499794595035155
 21
254.0418120916008900
 31
0.0000000000000000
  0
POLYLINE
  8
0
 62
    10
  6
CONTINUOUS
 66
     1
 10
0.0
 20
0.0
 30
0.0
  0
VERTEX
  8
0
 62
    10
  6
CONTINUOUS
 10
19.9298203422740090
 20
249.3862734606772700
 30
0.0000000000000402
 42
0.0754414516262500
  0
VERTEX
  8
0
 62
    10
  6
CONTINUOUS
 10
19.6438161562138590
 20
250.7666421481890500
 30
0.0000000000000500
 42
0.0836486592127232
  0
VERTEX
  8
0
 62
    10
  6
CONTINUOUS
 10
18.9762005960288320
 20
251.9257421337877900
 30
0.0000000000000557
 42
0.0881977913848931
  0
VERTEX
  8
0
 62
    10
  6
CONTINUOUS
 10
17.9826204316152600
 20
252.7669606750029600
 30
0.0000000000000566
 42
0.0881977913848931
  0
SEQEND
  0
LINE
  8
0
 62
    10
 6
CONTINUOUS
 10
21.3499794595035150
 20
236.0942643773388500
 30
0.0000000000000568
 11
21.3499794595035720
 21
248.9034193608197300
 31
0.0000000000000568
  0
LINE
  8
0
 62
    10
 6
CONTINUOUS
 10
8.3499794595035155
 20
228.0368301788849400
 30
0.0000000000000000
 11
8.3499794595035155
 21
228.9930706511528300
 31
0.0000000000000000
  0
LINE
  8
0
 62
    10
 6
CONTINUOUS
 10
8.3499794595035155
 20
228.9930706511528300
 30
0.0000000000000000
 11
8.3499794595035155
 21
250.0372567712641400
 31
0.0000000000000000
  0
LINE
  8
0
 62
    10
 6
CONTINUOUS
 10
16.1123847881010530
 20
252.6247252141299700
 30
0.0000000000000568
 11
8.3499794595035155
 21
250.0372567712641400
 31
0.0000000000000000
  0
POLYLINE
  8
0
 62
    10
  6
CONTINUOUS
 66
     1
 10
0.0
 20
0.0
 30
0.0
  0
VERTEX
  8
0
 62
    10
  6
CONTINUOUS
 10
17.9826185233528190
 20
252.7667682790157100
 30
0.0000000000000340
 42
0.1026542371341275
  0
VERTEX
  8
0
 62
    10
  6
CONTINUOUS
 10
16.1123847881011100
 20
252.6247252141300200
 30
0.0000000000000159
 42
0.1026542371341275
  0
SEQEND
  0
POLYLINE
  8
0
 62
    10
  6
CONTINUOUS
 66
     1
 10
0.0
 20
0.0
 30
0.0
  0
VERTEX
  8
0
 62
    10
  6
CONTINUOUS
 10
16.9157979221164080
 20
231.8483434720238000
 30
0.0000000000000000
 42
0.0924559774639588
  0
VERTEX
  8
0
 62
    10
  6
CONTINUOUS
 10
18.1742013008205770
 20
232.5903243801406300
 30
0.0000000000000000
 42
0.0827332619648573
  0
VERTEX
  8
0
 62
    10
  6
CONTINUOUS
 10
19.1552517335871110
 20
233.7852148351743200
 30
0.0000000000000000
 42
0.0732875390170299
  0
VERTEX
  8
0
 62
    10
  6
CONTINUOUS
 10
19.7606738544053120
 20
235.3133183435613200
 30
0.0000000000000000
 42
0.0672142763915936
  0
VERTEX
  8
0
 62
    10
  6
CONTINUOUS
 10
19.9298203422739700
 20
237.0215592564123000
 30
0.0000000000000000
 42
0.0672142763915936
  0
SEQEND
  0
POLYLINE
  8
0
 62
    10
  6
CONTINUOUS
 66
     1
 10
0.0
 20
0.0
 30
0.0
  0
VERTEX
  8
0
 62
    10
  6
CONTINUOUS
 10
21.3499794595035690
 20
248.9034193608192100
 30
0.0000000000000970
 42
0.0781987624237117
  0
VERTEX
  8
0
 62
    10
  6
CONTINUOUS
 10
21.0471331116224860
 20
250.3279026557962100
 30
0.0000000000000833
 42
0.0868978211727154
  0
VERTEX
  8
0
 62
    10
  6
CONTINUOUS
 10
20.3377001177149740
 20
251.5118333227698000
 30
0.0000000000000673
 42
0.0913263249420207
  0
VERTEX
  8
0
 62
    10
  6
CONTINUOUS
 10
19.2849154396806950
 20
252.3496822825164300
 30
0.0000000000000503
 42
0.0884888684351269
  0
VERTEX
  8
0
 62
    10
  6
CONTINUOUS
 10
17.9826185233528190
 20
252.7667682790157100
 30
0.0000000000000340
 42
0.0884888684351269
  0
SEQEND
  0
LINE
  8
0
 62
    10
 6
CONTINUOUS
 10
8.3499794595035155
 20
228.0368301788849400
 30
0.0000000000000000
 11
18.3359570393459420
 21
231.3654893721657700
 31
0.0000000000000568
  0
POLYLINE
  8
0
 62
    10
  6
CONTINUOUS
 66
     1
 10
0.0
 20
0.0
 30
0.0
  0
VERTEX
  8
0
 62
    10
  6
CONTINUOUS
 10
18.3359570393459810
 20
231.3654893721657400
 30
0.0000000000000662
 42
0.0867835889895156
  0
VERTEX
  8
0
 62
    10
  6
CONTINUOUS
 10
19.5210265026028760
 20
232.0454710854973800
 30
0.0000000000000822
 42
0.0783549340499276
  0
VERTEX
  8
0
 62
    10
  6
CONTINUOUS
 10
20.4692458476520080
 20
233.1281932915175900
 30
0.0000000000000960
 42
0.0698151353158830
  0
VERTEX
  8
0
 62
    10
  6
CONTINUOUS
 10
21.0972928194813390
 20
234.5185146537537000
 30
0.0000000000001064
 42
0.0638239118895406
  0
VERTEX
  8
0
 62
    10
  6
CONTINUOUS
 10
21.3499794595035150
 20
236.0942643773387000
 30
0.0000000000001124
 42
0.0638239118895406
  0
SEQEND
  0
POLYLINE
  8
0
 62
    10
  6
CONTINUOUS
 66
     1
 10
0.0
 20
0.0
 30
0.0
  0
VERTEX
  8
0
 62
    10
  6
CONTINUOUS
 10
-30.3903387749556230
 20
251.4861612528635800
 30
0.0000000000000000
 42
-0.0961840732273412
  0
VERTEX
  8
0
 62
    10
  6
CONTINUOUS
 10
-29.5368595978127540
 20
255.0688605243018700
 30
0.0000000000000000
 42
-0.1112200267392850
  0
VERTEX
  8
0
 62
    10
  6
CONTINUOUS
 10
-27.4744070053296530
 20
257.7954062353997500
 30
0.0000000000000000
 42
-0.1188804413857286
  0
VERTEX
  8
0
 62
    10
  6
CONTINUOUS
 10
-24.5128603117595820
 20
259.2561404292594600
 30
0.0000000000000000
 42
-0.1188804413857286
  0
SEQEND
  0
POLYLINE
  8
0
 62
    10
  6
CONTINUOUS
 66
     1
 10
0.0
 20
0.0
 30
0.0
  0
VERTEX
  8
0
 62
    10
  6
CONTINUOUS
 10
-24.5133881556320960
 20
259.2560117695345000
 30
0.0000000000000000
 42
-0.0873723067740543
  0
VERTEX
  8
0
 62
    10
  6
CONTINUOUS
 10
-22.1178559173809180
 20
259.8897573424473000
 30
0.0000000000000000
 42
-0.0810543925166641
  0
VERTEX
  8
0
 62
    10
  6
CONTINUOUS
 10
-19.5512514475089820
 20
259.6850234547199500
 30
0.0000000000000000
 42
-0.0810543925166641
  0
SEQEND
  0
POLYLINE
  8
0
 62
    10
  6
CONTINUOUS
 66
     1
 10
0.0
 20
0.0
 30
0.0
  0
VERTEX
  8
0
 62
    10
  6
CONTINUOUS
 10
-21.4763163547980830
 20
231.3654893721657100
 30
0.0000000000000000
 42
-0.0942539352057381
  0
VERTEX
  8
0
 62
    10
  6
CONTINUOUS
 10
-22.7578234125906430
 20
232.1275968206090300
 30
0.0000000000000000
 42
-0.0841027737939306
  0
VERTEX
  8
0
 62
    10
  6
CONTINUOUS
 10
-23.7482722451144210
 20
233.3589626367573300
 30
0.0000000000000000
 42
-0.0743779473642007
  0
VERTEX
  8
0
 62
    10
  6
CONTINUOUS
 10
-24.3444048950991740
 20
234.9312123759622500
 30
0.0000000000000000
 42
-0.0743779473642007
  0
SEQEND
  0
LINE
  8
0
 62
    10
 6
CONTINUOUS
 10
-24.3444048950991600
 20
234.9312123759622800
 30
0.0000000000000000
 11
-30.3903387749556370
 21
236.9465236692478200
 31
0.0000000000000000
  0
POLYLINE
  8
0
 62
    10
  6
CONTINUOUS
 66
     1
 10
0.0
 20
0.0
 30
0.0
  0
VERTEX
  8
0
 62
    10
  6
CONTINUOUS
 10
-20.0561572375684950
 20
231.8483434720237400
 30
0.0000000000000000
 42
-0.0942539352057388
  0
VERTEX
  8
0
 62
    10
  6
CONTINUOUS
 10
-21.3376642953610660
 20
232.6104509204670600
 30
0.0000000000000000
 42
-0.0841027737939309
  0
VERTEX
  8
0
 62
    10
  6
CONTINUOUS
 10
-22.3281131278848550
 20
233.8418167366153900
 30
0.0000000000000000
 42
-0.0743779473642012
  0
VERTEX
  8
0
 62
    10
  6
CONTINUOUS
 10
-22.9242457778696150
 20
235.4140664758203100
 30
0.0000000000000000
 42
-0.0743779473642012
  0
SEQEND
  0
POLYLINE
  8
0
 62
    10
  6
CONTINUOUS
 66
     1
 10
0.0
 20
0.0
 30
0.0
  0
VERTEX
  8
0
 62
    10
  6
CONTINUOUS
 10
-21.1229778388049110
 20
252.7667682790156800
 30
0.0000000000000000
 42
-0.1026542371341261
  0
VERTEX
  8
0
 62
    10
  6
CONTINUOUS
 10
-19.2527441035531940
 20
252.6247252141300000
 30
0.0000000000000000
 42
-0.1026542371341261
  0
SEQEND
  0
POLYLINE
  8
0
 62
    10
  6
CONTINUOUS
 66
     1
 10
0.0
 20
0.0
 30
0.0
  0
VERTEX
  8
0
 62
    10
  6
CONTINUOUS
 10
-24.4202449313570010
 20
249.4961299716638600
 30
0.0000000000000000
 42
-0.0993709146827982
  0
VERTEX
  8
0
 62
    10
  6
CONTINUOUS
 10
-23.8067066120654470
 20
251.0754540692159100
 30
0.0000000000000000
 42
-0.1087830132275216
  0
VERTEX
  8
0
 62
    10
  6
CONTINUOUS
 10
-22.6586960821412010
 20
252.2141932465469600
 30
0.0000000000000000
 42
-0.1068495170177600
  0
VERTEX
  8
0
 62
    10
  6
CONTINUOUS
 10
-21.1229778388049110
 20
252.7667682790156800
 30
0.0000000000000000
 42
-0.1068495170177600
  0
SEQEND
  0
LINE
  8
0
 62
    10
 6
CONTINUOUS
 10
-24.3444048950991600
 20
234.9312123759622800
 30
0.0000000000000000
 11
-22.9242457778696010
 21
235.4140664758203300
 31
0.0000000000000000
  0
POLYLINE
  8
0
 62
    10
  6
CONTINUOUS
 66
     1
 10
0.0
 20
0.0
 30
0.0
  0
VERTEX
  8
0
 62
    10
  6
CONTINUOUS
 10
-23.0000858141274090
 20
249.9789840715220400
 30
0.0000000000000000
 42
-0.1038012242726486
  0
VERTEX
  8
0
 62
    10
  6
CONTINUOUS
 10
-22.3485961240073930
 20
251.6157577990336700
 30
0.0000000000000000
 42
-0.1135727603932452
  0
VERTEX
  8
0
 62
    10
  6
CONTINUOUS
 10
-21.1229797470672730
 20
252.7669606750029300
 30
0.0000000000000000
 42
-0.1135727603932452
  0
SEQEND
  0
LINE
  8
0
 62
    10
 6
CONTINUOUS
 10
-24.4202449313569900
 20
249.4961299716639500
 30
0.0000000000000000
 11
-30.3903387749556940
 21
251.4861612528636100
 31
0.0000000000000000
  0
LINE
  8
0
 62
    10
 6
CONTINUOUS
 10
-30.3903387749556370
 20
236.9465236692478200
 30
0.0000000000000000
 11
-30.3903387749556370
 21
235.9465236692478200
 31
0.0000000000000000
  0
LINE
  8
0
 62
     2
 6
CONTINUOUS
 10
-1.5701796577261007
 20
274.5265642415992600
 30
0.0000000000000000
 11
-31.5701796577261010
 21
267.0465642415992400
 31
0.0000000000000000
  0
LINE
  8
0
 62
     2
 6
CONTINUOUS
 10
28.4298203422738990
 20
267.0465642415992400
 30
0.0000000000000000
 11
-1.5701796577261007
 21
274.5265642415992600
 31
0.0000000000000000
  0
LINE
  8
0
 62
     1
 6
CONTINUOUS
 10
-51.5701796577260440
 20
215.0465642415992400
 30
0.0000000000000000
 11
-51.5701796577260440
 21
195.0465642415992400
 31
0.0000000000000000
  0
LINE
  8
0
 62
     1
 6
CONTINUOUS
 10
32.1441060565596790
 20
215.0465642415992400
 30
0.0000000000000000
 11
32.1441060565596790
 21
211.5465642415992400
 31
0.0000000000000000
  0
LINE
  8
0
 62
     1
 6
CONTINUOUS
 10
-48.0701796577260440
 20
211.5465642415992400
 30
0.0000000000000000
 11
-48.0701796577260440
 21
206.7965642415992400
 31
0.0000000000000000
  0
LINE
  8
0
 62
     1
 6
CONTINUOUS
 10
1.5726774851311234
 20
215.0465642415992400
 30
0.0000000000000000
 11
15.8583917708454010
 21
215.0465642415992400
 31
0.0000000000000568
  0
LINE
  8
0
 62
     1
 6
CONTINUOUS
 10
17.8583917708454010
 20
215.0465642415992400
 30
0.0000000000000568
 11
32.1441060565596790
 21
215.0465642415992400
 31
0.0000000000000000
  0
LINE
  8
0
 62
     1
 6
CONTINUOUS
 10
10.4655346279882340
 20
211.5465642415992400
 30
0.0000000000000000
 11
15.8583917708454010
 21
211.5465642415992400
 31
0.0000000000000568
  0
LINE
  8
0
 62
     1
 6
CONTINUOUS
 10
-35.7844653720117660
 20
215.0465642415992400
 30
0.0000000000000000
 11
-35.7844653720117660
 21
195.0465642415992400
 31
0.0000000000000000
  0
LINE
  8
0
 62
     1
 6
CONTINUOUS
 10
-19.4987510862974890
 20
215.0465642415992400
 30
0.0000000000000000
 11
-19.4987510862974890
 21
195.0465642415992400
 31
0.0000000000000000
  0
LINE
  8
0
 62
     1
 6
CONTINUOUS
 10
-10.7130368005832110
 20
207.9596288671180600
 30
0.0000000000000000
 11
-3.4273225148688766
 21
195.0465642415992400
 31
0.0000000000000000
  0
LINE
  8
0
 62
     1
 6
CONTINUOUS
 10
-3.4273225148688766
 20
215.0465642415992400
 30
0.0000000000000000
 11
0.0726774851311234
 21
215.0465642415992400
 31
0.0000000000000000
  0
LINE
  8
0
 62
     1
 6
CONTINUOUS
 10
-14.2130368005832110
 20
215.0465642415992400
 30
0.0000000000000000
 11
-14.2130368005832110
 21
195.0465642415992400
 31
0.0000000000000000
  0
LINE
  8
0
 62
     1
 6
CONTINUOUS
 10
1.5726774851311234
 20
215.0465642415992400
 30
0.0000000000000000
 11
1.5726774851311234
 21
211.5465642415992400
 31
0.0000000000000000
  0
LINE
  8
0
 62
     1
 6
CONTINUOUS
 10
17.8583917708454010
 20
215.0465642415992400
 30
0.0000000000000568
 11
17.8583917708454010
 21
195.0465642415992400
 31
0.0000000000000568
  0
LINE
  8
0
 62
     1
 6
CONTINUOUS
 10
-48.0701796577260440
 20
203.2965642415992400
 30
0.0000000000000000
 11
-48.0701796577260440
 21
195.0465642415992400
 31
0.0000000000000000
  0
LINE
  8
0
 62
     1
 6
CONTINUOUS
 10
1.5726774851311234
 20
211.5465642415992400
 30
0.0000000000000000
 11
6.9655346279882338
 21
211.5465642415992400
 31
0.0000000000000000
  0
LINE
  8
0
 62
     1
 6
CONTINUOUS
 10
-3.4273225148688766
 20
195.0465642415992400
 30
0.0000000000000000
 11
0.0726774851311234
 21
195.0465642415992400
 31
0.0000000000000000
  0
ARC
  8
0
 62
     1
  6
CONTINUOUS
 10
-43.1594653720117660
 20
209.1715642415992400
 30
0.0000000000000000
 40
5.8750000000000000
 50
-90.0000000000000000
 51
90.0000000000000000
  0
ARC
  8
0
 62
     1
  6
CONTINUOUS
 10
-43.1594653720117660
 20
209.1715642415992400
 30
0.0000000000000000
 40
2.3750000000000000
 50
-90.0000000000000000
 51
90.0000000000000000
  0
LINE
  8
0
 62
     1
 6
CONTINUOUS
 10
-51.5701796577260440
 20
195.0465642415992400
 30
0.0000000000000000
 11
-48.0701796577260440
 21
195.0465642415992400
 31
0.0000000000000000
  0
LINE
  8
0
 62
     1
 6
CONTINUOUS
 10
-51.5701796577260440
 20
215.0465642415992400
 30
0.0000000000000000
 11
-43.1594653720117660
 21
215.0465642415992400
 31
0.0000000000000000
  0
LINE
  8
0
 62
     1
 6
CONTINUOUS
 10
-48.0701796577260440
 20
211.5465642415992400
 30
0.0000000000000000
 11
-43.1594653720117660
 21
211.5465642415992400
 31
0.0000000000000000
  0
LINE
  8
0
 62
     1
 6
CONTINUOUS
 10
-48.0701796577260440
 20
206.7965642415992400
 30
0.0000000000000000
 11
-43.1594653720117660
 21
206.7965642415992400
 31
0.0000000000000000
  0
LINE
  8
0
 62
     1
 6
CONTINUOUS
 10
-48.0701796577260440
 20
203.2965642415992400
 30
0.0000000000000000
 11
-43.1594653720117660
 21
203.2965642415992400
 31
0.0000000000000000
  0
LINE
  8
0
 62
     1
 6
CONTINUOUS
 10
21.3583917708454010
 20
203.2965642415992400
 30
0.0000000000000568
 11
21.3583917708454010
 21
198.5465642415992400
 31
0.0000000000000568
  0
LINE
  8
0
 62
     1
 6
CONTINUOUS
 10
-19.4987510862974890
 20
215.0465642415992400
 30
0.0000000000000000
 11
-15.9987510862974890
 21
215.0465642415992400
 31
0.0000000000000000
  0
ARC
  8
0
 62
     1
  6
CONTINUOUS
 10
-27.3737510862974890
 20
209.1715642415992400
 30
0.0000000000000000
 40
2.3750000000000000
 50
-90.0000000000000000
 51
90.0000000000000000
  0
ARC
  8
0
 62
     1
  6
CONTINUOUS
 10
-27.3737510862974890
 20
209.1715642415992400
 30
0.0000000000000000
 40
5.8750000000000000
 50
-90.0000000000000000
 51
90.0000000000000000
  0
LINE
  8
0
 62
     1
 6
CONTINUOUS
 10
-35.7844653720117660
 20
195.0465642415992400
 30
0.0000000000000000
 11
-32.2844653720117660
 21
195.0465642415992400
 31
0.0000000000000000
  0
LINE
  8
0
 62
     1
 6
CONTINUOUS
 10
-32.2844653720117660
 20
203.2965642415992400
 30
0.0000000000000000
 11
-32.2844653720117660
 21
195.0465642415992400
 31
0.0000000000000000
  0
LINE
  8
0
 62
     1
 6
CONTINUOUS
 10
-32.2844653720117660
 20
203.2965642415992400
 30
0.0000000000000000
 11
-31.6705148224393160
 21
203.2965642415992400
 31
0.0000000000000000
  0
LINE
  8
0
 62
     1
 6
CONTINUOUS
 10
-32.2844653720117660
 20
211.5465642415992400
 30
0.0000000000000000
 11
-32.2844653720117660
 21
206.7965642415992400
 31
0.0000000000000000
  0
LINE
  8
0
 62
     1
 6
CONTINUOUS
 10
-32.2844653720117660
 20
206.7965642415992400
 30
0.0000000000000000
 11
-27.3737510862974890
 21
206.7965642415992400
 31
0.0000000000000000
  0
LINE
  8
0
 62
     1
 6
CONTINUOUS
 10
-32.2844653720117660
 20
211.5465642415992400
 30
0.0000000000000000
 11
-27.3737510862974890
 21
211.5465642415992400
 31
0.0000000000000000
  0
LINE
  8
0
 62
     1
 6
CONTINUOUS
 10
-35.7844653720117660
 20
215.0465642415992400
 30
0.0000000000000000
 11
-27.3737510862974890
 21
215.0465642415992400
 31
0.0000000000000000
  0
LINE
  8
0
 62
     1
 6
CONTINUOUS
 10
-27.3737510862974890
 20
203.2965642415992400
 30
0.0000000000000000
 11
-21.4987510862974890
 21
195.0465642415992400
 31
0.0000000000000000
  0
LINE
  8
0
 62
     1
 6
CONTINUOUS
 10
-25.7955148224393720
 20
195.0465642415992400
 30
0.0000000000000000
 11
-21.4987510862974890
 21
195.0465642415992400
 31
0.0000000000000000
  0
LINE
  8
0
 62
     1
 6
CONTINUOUS
 10
-31.6705148224393160
 20
203.2965642415992400
 30
0.0000000000000000
 11
-25.7955148224393720
 21
195.0465642415992400
 31
0.0000000000000000
  0
LINE
  8
0
 62
     1
 6
CONTINUOUS
 10
-15.9987510862974890
 20
215.0465642415992400
 30
0.0000000000000000
 11
-15.9987510862974890
 21
195.0465642415992400
 31
0.0000000000000000
  0
LINE
  8
0
 62
     1
 6
CONTINUOUS
 10
-19.4987510862974890
 20
195.0465642415992400
 30
0.0000000000000000
 11
-15.9987510862974890
 21
195.0465642415992400
 31
0.0000000000000000
  0
LINE
  8
0
 62
     1
 6
CONTINUOUS
 10
34.1441060565596790
 20
195.0465642415992400
 30
0.0000000000000000
 11
37.6441060565596790
 21
195.0465642415992400
 31
0.0000000000000000
  0
LINE
  8
0
 62
     1
 6
CONTINUOUS
 10
37.6441060565596790
 20
203.2965642415992400
 30
0.0000000000000000
 11
38.2580566061321290
 21
203.2965642415992400
 31
0.0000000000000000
  0
LINE
  8
0
 62
     1
 6
CONTINUOUS
 10
37.6441060565596790
 20
203.2965642415992400
 30
0.0000000000000000
 11
37.6441060565596790
 21
195.0465642415992400
 31
0.0000000000000000
  0
LINE
  8
0
 62
     1
 6
CONTINUOUS
 10
38.2580566061321290
 20
203.2965642415992400
 30
0.0000000000000000
 11
44.1330566061320720
 21
195.0465642415992400
 31
0.0000000000000000
  0
LINE
  8
0
 62
     1
 6
CONTINUOUS
 10
44.1330566061320720
 20
195.0465642415992400
 30
0.0000000000000000
 11
48.4298203422739560
 21
195.0465642415992400
 31
0.0000000000000000
  0
LINE
  8
0
 62
     1
 6
CONTINUOUS
 10
42.5548203422739560
 20
203.2965642415992400
 30
0.0000000000000000
 11
48.4298203422739560
 21
195.0465642415992400
 31
0.0000000000000000
  0
ARC
  8
0
 62
     1
  6
CONTINUOUS
 10
42.5548203422739560
 20
209.1715642415992400
 30
0.0000000000000000
 40
5.8750000000000000
 50
-90.0000000000000000
 51
90.0000000000000000
  0
LINE
  8
0
 62
     1
 6
CONTINUOUS
 10
34.1441060565596790
 20
215.0465642415992400
 30
0.0000000000000000
 11
42.5548203422739560
 21
215.0465642415992400
 31
0.0000000000000000
  0
LINE
  8
0
 62
     1
 6
CONTINUOUS
 10
37.6441060565596790
 20
211.5465642415992400
 30
0.0000000000000000
 11
37.6441060565596790
 21
206.7965642415992400
 31
0.0000000000000000
  0
LINE
  8
0
 62
     1
 6
CONTINUOUS
 10
37.6441060565596790
 20
211.5465642415992400
 30
0.0000000000000000
 11
42.5548203422739560
 21
211.5465642415992400
 31
0.0000000000000000
  0
ARC
  8
0
 62
     1
  6
CONTINUOUS
 10
42.5548203422739560
 20
209.1715642415992400
 30
0.0000000000000000
 40
2.3750000000000000
 50
-90.0000000000000000
 51
90.0000000000000000
  0
LINE
  8
0
 62
     1
 6
CONTINUOUS
 10
34.1441060565596790
 20
215.0465642415992400
 30
0.0000000000000000
 11
34.1441060565596790
 21
195.0465642415992400
 31
0.0000000000000000
  0
LINE
  8
0
 62
     1
 6
CONTINUOUS
 10
37.6441060565596790
 20
206.7965642415992400
 30
0.0000000000000000
 11
42.5548203422739560
 21
206.7965642415992400
 31
0.0000000000000000
  0
LINE
  8
0
 62
     1
 6
CONTINUOUS
 10
6.9655346279882338
 20
211.5465642415992400
 30
0.0000000000000000
 11
6.9655346279882338
 21
195.0465642415992400
 31
0.0000000000000000
  0
LINE
  8
0
 62
     1
 6
CONTINUOUS
 10
17.8583917708454010
 20
195.0465642415992400
 30
0.0000000000000568
 11
32.1441060565596790
 21
195.0465642415992400
 31
0.0000000000000000
  0
LINE
  8
0
 62
     1
 6
CONTINUOUS
 10
10.4655346279882340
 20
211.5465642415992400
 30
0.0000000000000000
 11
10.4655346279882340
 21
195.0465642415992400
 31
0.0000000000000000
  0
LINE
  8
0
 62
     1
 6
CONTINUOUS
 10
30.1441060565596790
 20
206.7965642415992400
 30
0.0000000000000000
 11
30.1441060565596790
 21
203.2965642415992400
 31
0.0000000000000000
  0
LINE
  8
0
 62
     1
 6
CONTINUOUS
 10
32.1441060565596790
 20
198.5465642415992400
 30
0.0000000000000000
 11
32.1441060565596790
 21
195.0465642415992400
 31
0.0000000000000000
  0
LINE
  8
0
 62
     1
 6
CONTINUOUS
 10
15.8583917708454010
 20
215.0465642415992400
 30
0.0000000000000568
 11
15.8583917708454010
 21
211.5465642415992400
 31
0.0000000000000568
  0
LINE
  8
0
 62
     1
 6
CONTINUOUS
 10
0.0726774851311234
 20
215.0465642415992400
 30
0.0000000000000000
 11
0.0726774851311234
 21
195.0465642415992400
 31
0.0000000000000000
  0
LINE
  8
0
 62
     1
 6
CONTINUOUS
 10
-14.2130368005832110
 20
215.0465642415992400
 30
0.0000000000000000
 11
-10.7130368005832110
 21
215.0465642415992400
 31
0.0000000000000000
  0
LINE
  8
0
 62
     1
 6
CONTINUOUS
 10
21.3583917708454010
 20
211.5465642415992400
 30
0.0000000000000568
 11
21.3583917708454010
 21
206.7965642415992400
 31
0.0000000000000568
  0
LINE
  8
0
 62
     1
 6
CONTINUOUS
 10
-14.2130368005832110
 20
195.0465642415992400
 30
0.0000000000000000
 11
-10.7130368005832110
 21
195.0465642415992400
 31
0.0000000000000000
  0
LINE
  8
0
 62
     1
 6
CONTINUOUS
 10
6.9655346279882338
 20
195.0465642415992400
 30
0.0000000000000000
 11
10.4655346279882340
 21
195.0465642415992400
 31
0.0000000000000000
  0
LINE
  8
0
 62
     1
 6
CONTINUOUS
 10
21.3583917708454010
 20
211.5465642415992400
 30
0.0000000000000568
 11
32.1441060565596790
 21
211.5465642415992400
 31
0.0000000000000000
  0
LINE
  8
0
 62
     1
 6
CONTINUOUS
 10
21.3583917708454010
 20
206.7965642415992400
 30
0.0000000000000568
 11
30.1441060565596790
 21
206.7965642415992400
 31
0.0000000000000000
  0
LINE
  8
0
 62
     1
 6
CONTINUOUS
 10
21.3583917708454010
 20
203.2965642415992400
 30
0.0000000000000568
 11
30.1441060565596790
 21
203.2965642415992400
 31
0.0000000000000000
  0
LINE
  8
0
 62
     1
 6
CONTINUOUS
 10
21.3583917708454010
 20
198.5465642415992400
 30
0.0000000000000568
 11
32.1441060565596790
 21
198.5465642415992400
 31
0.0000000000000000
  0
LINE
  8
0
 62
     1
 6
CONTINUOUS
 10
-10.7130368005832110
 20
207.9596288671179400
 30
0.0000000000000000
 11
-10.7130368005832110
 21
195.0465642415992400
 31
0.0000000000000000
  0
LINE
  8
0
 62
     1
 6
CONTINUOUS
 10
-3.4273225148688766
 20
215.0465642415992400
 30
0.0000000000000000
 11
-3.4273225148688766
 21
202.1334996160804300
 31
0.0000000000000000
  0
LINE
  8
0
 62
     1
 6
CONTINUOUS
 10
-10.7130368005832110
 20
215.0465642415992400
 30
0.0000000000000000
 11
-3.4273225148688766
 21
202.1334996160804300
 31
0.0000000000000000
  0
LINE
  8
0
 62
     1
 6
CONTINUOUS
 10
-9.0701796577260438
 20
180.0465642415992400
 30
0.0000000000000000
 11
-7.0701796577260438
 21
180.0465642415992400
 31
0.0000000000000000
  0
LINE
  8
0
 62
     1
 6
CONTINUOUS
 10
-12.0701796577259870
 20
189.0465642415992400
 30
0.0000000000000000
 11
-9.0701796577260438
 21
189.0465642415992400
 31
0.0000000000000000
  0
LINE
  8
0
 62
     1
 6
CONTINUOUS
 10
-12.0701796577260440
 20
184.1600981340314400
 30
0.0000000000000000
 11
-12.0701796577260440
 21
180.0465642415992400
 31
0.0000000000000000
  0
LINE
  8
0
 62
     1
 6
CONTINUOUS
 10
-19.0701796577260440
 20
180.0465642415992400
 30
0.0000000000000000
 11
-19.0701796577260440
 21
177.0465642415992400
 31
0.0000000000000000
  0
LINE
  8
0
 62
     1
 6
CONTINUOUS
 10
-5.5701796577260438
 20
177.0465642415992400
 30
0.0000000000000000
 11
0.9018555696416684
 21
183.4041337112140000
 31
0.0000000000000000
  0
LINE
  8
0
 62
     1
 6
CONTINUOUS
 10
-9.0701796577260438
 20
177.0465642415992400
 30
0.0000000000000000
 11
-9.0701796577260438
 21
174.0465642415992400
 31
0.0000000000000000
  0
LINE
  8
0
 62
     1
 6
CONTINUOUS
 10
-5.5701796577260438
 20
174.0465642415992400
 30
0.0000000000000000
 11
4.4298203422739562
 21
174.0465642415992400
 31
0.0000000000000000
  0
LINE
  8
0
 62
     1
 6
CONTINUOUS
 10
-7.0701796577260438
 20
180.0465642415992400
 30
0.0000000000000000
 11
-7.0701796577260438
 21
177.0465642415992400
 31
0.0000000000000000
  0
LINE
  8
0
 62
     1
 6
CONTINUOUS
 10
-9.0701796577260438
 20
177.0465642415992400
 30
0.0000000000000000
 11
-7.0701796577260438
 21
177.0465642415992400
 31
0.0000000000000000
  0
LINE
  8
0
 62
     1
 6
CONTINUOUS
 10
-12.0701796577260440
 20
177.0465642415992400
 30
0.0000000000000000
 11
-12.0701796577260440
 21
174.0465642415992400
 31
0.0000000000000000
  0
LINE
  8
0
 62
     1
 6
CONTINUOUS
 10
-15.2695949073955720
 20
180.0465642415992400
 30
0.0000000000000000
 11
-12.0701796577260440
 21
180.0465642415992400
 31
0.0000000000000000
  0
LINE
  8
0
 62
     1
 6
CONTINUOUS
 10
-12.0701796577260440
 20
184.1600981340314400
 30
0.0000000000000000
 11
-15.2695949073955150
 21
180.0465642415992400
 31
0.0000000000000000
  0
LINE
  8
0
 62
     1
 6
CONTINUOUS
 10
-12.0701796577260440
 20
189.0465642415992400
 30
0.0000000000000000
 11
-19.0701796577260440
 21
180.0465642415992400
 31
0.0000000000000000
  0
LINE
  8
0
 62
     1
 6
CONTINUOUS
 10
-9.0701796577260438
 20
189.0465642415992400
 30
0.0000000000000000
 11
-9.0701796577260438
 21
180.0465642415992400
 31
0.0000000000000000
  0
LINE
  8
0
 62
     1
 6
CONTINUOUS
 10
-19.0701796577260440
 20
177.0465642415992400
 30
0.0000000000000000
 11
-12.0701796577260440
 21
177.0465642415992400
 31
0.0000000000000000
  0
LINE
  8
0
 62
     1
 6
CONTINUOUS
 10
-12.0701796577260440
 20
174.0465642415992400
 30
0.0000000000000000
 11
-9.0701796577260438
 21
174.0465642415992400
 31
0.0000000000000000
  0
LINE
  8
0
 62
     1
 6
CONTINUOUS
 10
-1.2891749804192045
 20
177.0465642415992400
 30
0.0000000000000000
 11
4.4298203422739562
 21
177.0465642415992400
 31
0.0000000000000000
  0
LINE
  8
0
 62
     1
 6
CONTINUOUS
 10
-1.0701796577260438
 20
186.0465642415992400
 30
0.0000000000000000
 11
-0.0701796577260438
 21
186.0465642415992400
 31
0.0000000000000000
  0
POLYLINE
  8
0
 62
     1
  6
CONTINUOUS
 66
     1
 10
0.0
 20
0.0
 30
0.0
 70
     1
  0
VERTEX
  8
0
 62
     1
  6
CONTINUOUS
 10
14.9298203422739560
 20
181.5465642415992400
 30
0.0000000000000000
 42
0.0674590399341531
  0
VERTEX
  8
0
 62
     1
  6
CONTINUOUS
 10
14.7014589398078160
 20
183.2686396872421400
 30
0.0000000000000000
 42
0.0798124861749922
  0
VERTEX
  8
0
 62
     1
  6
CONTINUOUS
 10
14.0511406858335980
 20
184.7285447569387000
 30
0.0000000000000000
 42
0.1071181112083430
  0
VERTEX
  8
0
 62
     1
  6
CONTINUOUS
 10
13.0778706393692250
 20
185.7040221379000400
 30
0.0000000000000000
 42
0.1398891526406600
  0
VERTEX
  8
0
 62
     1
  6
CONTINUOUS
 10
11.9298203422739560
 20
186.0465642415992400
 30
0.0000000000000000
 42
0.1398891526406600
  0
VERTEX
  8
0
 62
     1
  6
CONTINUOUS
 10
10.7817700451786870
 20
185.7040221379000400
 30
0.0000000000000000
 42
0.1071181112083432
  0
VERTEX
  8
0
 62
     1
  6
CONTINUOUS
 10
9.8084999987143142
 20
184.7285447569387000
 30
0.0000000000000000
 42
0.0798124861749923
  0
VERTEX
  8
0
 62
     1
  6
CONTINUOUS
 10
9.1581817447400962
 20
183.2686396872421400
 30
0.0000000000000000
 42
0.0674590399341532
  0
VERTEX
  8
0
 62
     1
  6
CONTINUOUS
 10
8.9298203422739562
 20
181.5465642415992400
 30
0.0000000000000000
 42
0.0674590399341531
  0
VERTEX
  8
0
 62
     1
  6
CONTINUOUS
 10
9.1581817447400962
 20
179.8244887959563400
 30
0.0000000000000000
 42
0.0798124861749922
  0
VERTEX
  8
0
 62
     1
  6
CONTINUOUS
 10
9.8084999987143142
 20
178.3645837262597800
 30
0.0000000000000000
 42
0.1071181112083429
  0
VERTEX
  8
0
 62
     1
  6
CONTINUOUS
 10
10.7817700451786860
 20
177.3891063452984400
 30
0.0000000000000000
 42
0.1398891526406601
  0
VERTEX
  8
0
 62
     1
  6
CONTINUOUS
 10
11.9298203422739560
 20
177.0465642415992400
 30
0.0000000000000000
 42
0.1398891526406600
  0
VERTEX
  8
0
 62
     1
  6
CONTINUOUS
 10
13.0778706393692270
 20
177.3891063452984400
 30
0.0000000000000000
 42
0.1071181112083432
  0
VERTEX
  8
0
 62
     1
  6
CONTINUOUS
 10
14.0511406858336000
 20
178.3645837262597800
 30
0.0000000000000000
 42
0.0798124861749922
  0
VERTEX
  8
0
 62
     1
  6
CONTINUOUS
 10
14.7014589398078180
 20
179.8244887959563400
 30
0.0000000000000000
 42
0.0674590399341531
  0
SEQEND
  0
POLYLINE
  8
0
 62
     1
  6
CONTINUOUS
 66
     1
 10
0.0
 20
0.0
 30
0.0
 70
     1
  0
VERTEX
  8
0
 62
     1
  6
CONTINUOUS
 10
17.9298203422739560
 20
181.5465642415992400
 30
0.0000000000000568
 42
0.0801668980116145
  0
VERTEX
  8
0
 62
     1
  6
CONTINUOUS
 10
17.4730975373416760
 20
184.4166899843374100
 30
0.0000000000000525
 42
0.0889226874666993
  0
VERTEX
  8
0
 62
     1
  6
CONTINUOUS
 10
16.1724610293932400
 20
186.8498651004983300
 30
0.0000000000000402
 42
0.1049567332455668
  0
VERTEX
  8
0
 62
     1
  6
CONTINUOUS
 10
14.2259209364644960
 20
188.4756607354339100
 30
0.0000000000000218
 42
0.1200112168691441
  0
VERTEX
  8
0
 62
     1
  6
CONTINUOUS
 10
11.9298203422739560
 20
189.0465642415992400
 30
0.0000000000000000
 42
0.1200112168691441
  0
VERTEX
  8
0
 62
     1
  6
CONTINUOUS
 10
9.6337197480834185
 20
188.4756607354339100
 30
-0.0000000000000218
 42
0.1049567332455670
  0
VERTEX
  8
0
 62
     1
  6
CONTINUOUS
 10
7.6871796551546714
 20
186.8498651004983300
 30
-0.0000000000000402
 42
0.0889226874666994
  0
VERTEX
  8
0
 62
     1
  6
CONTINUOUS
 10
6.3865431472062362
 20
184.4166899843374100
 30
-0.0000000000000525
 42
0.0801668980116146
  0
VERTEX
  8
0
 62
     1
  6
CONTINUOUS
 10
5.9298203422739562
 20
181.5465642415992400
 30
-0.0000000000000568
 42
0.0801668980116145
  0
VERTEX
  8
0
 62
     1
  6
CONTINUOUS
 10
6.3865431472062353
 20
178.6764384988610700
 30
-0.0000000000000525
 42
0.0889226874666994
  0
VERTEX
  8
0
 62
     1
  6
CONTINUOUS
 10
7.6871796551546705
 20
176.2432633827001500
 30
-0.0000000000000402
 42
0.1049567332455666
  0
VERTEX
  8
0
 62
     1
  6
CONTINUOUS
 10
9.6337197480834149
 20
174.6174677477645800
 30
-0.0000000000000218
 42
0.1200112168691442
  0
VERTEX
  8
0
 62
     1
  6
CONTINUOUS
 10
11.9298203422739540
 20
174.0465642415992400
 30
-0.0000000000000000
 42
0.1200112168691443
  0
VERTEX
  8
0
 62
     1
  6
CONTINUOUS
 10
14.2259209364644960
 20
174.6174677477645800
 30
0.0000000000000218
 42
0.1049567332455668
  0
VERTEX
  8
0
 62
     1
  6
CONTINUOUS
 10
16.1724610293932440
 20
176.2432633827001500
 30
0.0000000000000402
 42
0.0889226874666994
  0
VERTEX
  8
0
 62
     1
  6
CONTINUOUS
 10
17.4730975373416800
 20
178.6764384988610700
 30
0.0000000000000525
 42
0.0801668980116146
  0
SEQEND
  0
ARC
  8
0
 62
     1
  6
CONTINUOUS
 10
-0.0701796577260438
 20
184.5465642415992400
 30
0.0000000000000000
 40
1.5000000000000000
 50
-49.6072627118642090
 51
90.0000000000000000
  0
LINE
  8
0
 62
     1
 6
CONTINUOUS
 10
-5.5701796577259870
 20
185.0465648101912800
 30
0.0000000000000000
 11
-5.5701796577260438
 21
184.5465642415992400
 31
0.0000000000000000
  0
LINE
  8
0
 62
     1
 6
CONTINUOUS
 10
-5.5701796577260438
 20
184.5465642415992400
 30
0.0000000000000000
 11
-2.5701796577260438
 21
184.5465642415992400
 31
0.0000000000000000
  0
ARC
  8
0
 62
     1
  6
CONTINUOUS
 10
-1.0701796577260438
 20
184.5465642415992400
 30
0.0000000000000000
 40
1.5000000000000000
 50
90.0000000000000000
 51
180.0000000000000000
  0
ARC
  8
0
 62
     1
  6
CONTINUOUS
 10
0.4298203422741835
 20
184.3422103102835200
 30
0.0000000000000000
 40
4.0000000000000426
 50
-45.5111794915169410
 51
-0.0000113532021421
  0
LINE
  8
0
 62
     1
 6
CONTINUOUS
 10
-5.5701796577260438
 20
177.0465642415992400
 30
0.0000000000000000
 11
-5.5701796577260438
 21
174.0465642415992400
 31
0.0000000000000000
  0
ARC
  8
0
 62
     1
  6
CONTINUOUS
 10
0.4298203422739562
 20
185.0465642415992400
 30
0.0000000000000000
 40
4.0000000000000320
 50
0.0000000000000000
 51
89.9999901168553290
  0
ARC
  8
0
 62
     1
  6
CONTINUOUS
 10
-1.5701796577260438
 20
185.0465642415992400
 30
0.0000000000000000
 40
4.0000000000000320
 50
90.0000000000000000
 51
179.9999918555189100
  0
LINE
  8
0
 62
     1
 6
CONTINUOUS
 10
4.4298203422741267
 20
185.0465642415991300
 30
0.0000000000000000
 11
4.4298203422741267
 21
184.3422095176804900
 31
0.0000000000000000
  0
LINE
  8
0
 62
     1
 6
CONTINUOUS
 10
-1.2891749804192045
 20
177.0465642415992400
 30
0.0000000000000000
 11
3.2329006714339243
 21
181.4886615253005300
 31
0.0000000000000000
  0
LINE
  8
0
 62
     1
 6
CONTINUOUS
 10
-1.5701796577260438
 20
189.0465642415993000
 30
0.0000000000000000
 11
0.4298210322476166
 21
189.0465642415991900
 31
0.0000000000000000
  0
LINE
  8
0
 62
     1
 6
CONTINUOUS
 10
4.4298203422739562
 20
177.0465642415992400
 30
0.0000000000000000
 11
4.4298203422739562
 21
174.0465642415992400
 31
0.0000000000000000
  0
LINE
  8
0
 62
    10
 6
CONTINUOUS
 10
19.9298203422739560
 20
237.0215592564124400
 30
0.0000000000000568
 11
21.3499794595035150
 21
236.0942643773388500
 31
0.0000000000000568
  0
LINE
  8
0
 62
    10
 6
CONTINUOUS
 10
-13.2020147480695870
 20
256.6123707493055100
 30
0.0000000000000000
 11
-11.7818556308400840
 21
257.0952248491635700
 31
0.0000000000000000
  0
ENDSEC
  0
EOF
