  0
SECTION
  2
HEADER
  9
$ACADVER
 1
AC1009
  9
$EXTMIN
 10
-55.0250000000000480
 20
-29.0070000000000010
  9
$EXTMAX
 10
563.0964285714285300
 20
509.2670000000000000
  9
$LIMMIN
 10
-55.0250000000000480
 20
-29.0070000000000010
  9
$LIMMAX
 10
563.0964285714285300
 20
509.2670000000000000
  9
$LTSCALE
 40
2.5000000000000000
  9
$LUPREC
 70
     2
  9
$LUNITS
 70
     2
  9
$AUPREC
 70
     2
  9
$TEXTSIZE
 40
3.0000000000000000
  9
$DIMSCALE
 40
1.0000000000000000
  9
$DIMLFAC
 40
1.0000000000000000
  9
$DIMTXT
 40
5.0000000000000000
  9
$DIMEXO
 40
7.5000000000000000
  9
$DIMASZ
 40
5.0000000000000000
  9
$DIMEXE
 40
5.0000000000000000
  9
$DIMSE1
 70
     0
  9
$DIMSE2
 70
     0
  9
$AUNITS
 70
     0
  9
$DIMTAD
 70
     1
  9
$DIMTIH
 70
     0
  9
$DIMTOH
 70
     0
  9
$FILLMODE
 70
     1
  0
ENDSEC
  0
SECTION
  2
TABLES
  0
TABLE
  2
LTYPE
 70
     0
  0
LTYPE
  2
CONTINUOUS
 70
    64
  3
Solid line
 72
    65
 73
     0
 40
0.0
  0
ENDTAB
  0
TABLE
  2
LAYER
 70
     0
  0
LAYER
  2
0
 70
  64
  62
7
  6
CONTINUOUS
  0
ENDTAB
  0
ENDSEC
  0
SECTION
  2
BLOCKS
  0
ENDSEC
  0
SECTION
  2
ENTITIES
  0
LINE
  8
0
 62
     6
 6
CONTINUOUS
 10
0.0000000000000000
 20
0.0000000000000000
 30
0.0000000000000000
 11
535.0000000000000000
 21
0.0000000000000000
 31
0.0000000000000000
  0
LINE
  8
0
 62
     6
 6
CONTINUOUS
 10
535.0000000000000000
 20
0.0000000000000000
 30
0.0000000000000000
 11
535.0000000000000000
 21
50.0000000000000000
 31
0.0000000000000000
  0
LINE
  8
0
 62
     6
 6
CONTINUOUS
 10
535.0000000000000000
 20
50.0000000000000000
 30
0.0000000000000000
 11
0.0000000000000000
 21
50.0000000000000000
 31
0.0000000000000000
  0
LINE
  8
0
 62
     6
 6
CONTINUOUS
 10
0.0000000000000000
 20
50.0000000000000000
 30
0.0000000000000000
 11
0.0000000000000000
 21
0.0000000000000000
 31
0.0000000000000000
  0
LINE
  8
0
 62
     6
 6
CONTINUOUS
 10
217.6355168519211200
 20
36.7916540635878490
 30
0.0000000000000000
 11
217.6355168519211500
 21
11.7916540635878490
 31
0.0000000000000000
  0
LINE
  8
0
 62
     6
 6
CONTINUOUS
 10
233.8021835185878100
 20
36.7916540635879060
 30
-0.0000000000000568
 11
233.8021835185878400
 21
11.7916540635879060
 31
-0.0000000000000568
  0
LINE
  8
0
 62
     6
 6
CONTINUOUS
 10
268.1355168519211200
 20
36.7916540635879060
 30
-0.0000000000000568
 11
268.1355168519211800
 21
11.7916540635879060
 31
-0.0000000000000568
  0
LINE
  8
0
 62
     6
 6
CONTINUOUS
 10
283.8021835185878100
 20
36.7916540635878490
 30
-0.0000000000000568
 11
283.8021835185878100
 21
32.7916540635879060
 31
-0.0000000000000568
  0
LINE
  8
0
 62
     6
 6
CONTINUOUS
 10
284.8021835185878100
 20
36.7916540635878490
 30
-0.0000000000000568
 11
284.8021835185878100
 21
11.7916540635878490
 31
-0.0000000000000568
  0
LINE
  8
0
 62
     6
 6
CONTINUOUS
 10
301.4688501852544400
 20
36.7916540635878490
 30
-0.0000000000000568
 11
305.8653067081484700
 21
36.7916540635879060
 31
-0.0000000000000568
  0
LINE
  8
0
 62
     6
 6
CONTINUOUS
 10
221.6355168519211200
 20
32.7916540635878490
 30
0.0000000000000000
 11
221.6355168519211200
 21
26.2916540635878490
 31
0.0000000000000000
  0
LINE
  8
0
 62
     6
 6
CONTINUOUS
 10
233.8021835185878400
 20
11.7916540635879060
 30
-0.0000000000000568
 11
237.8021835185878400
 21
11.7916540635879060
 31
-0.0000000000000568
  0
LINE
  8
0
 62
     6
 6
CONTINUOUS
 10
288.8021835185878100
 20
22.2916540635879060
 30
-0.0000000000000568
 11
288.8021835185878100
 21
11.7916540635878490
 31
-0.0000000000000568
  0
LINE
  8
0
 62
     6
 6
CONTINUOUS
 10
237.8021835185878100
 20
32.7916540635879060
 30
-0.0000000000000568
 11
237.8021835185878100
 21
26.2916540635879060
 31
-0.0000000000000568
  0
LINE
  8
0
 62
     6
 6
CONTINUOUS
 10
272.1355168519211800
 20
32.7916540635879060
 30
-0.0000000000000568
 11
283.8021835185878100
 21
32.7916540635879060
 31
-0.0000000000000568
  0
LINE
  8
0
 62
     6
 6
CONTINUOUS
 10
307.3539552571407400
 20
24.2916540635877920
 30
-0.0000000000000568
 11
301.4688501852544400
 21
11.7916540635878490
 31
-0.0000000000000568
  0
LINE
  8
0
 62
     6
 6
CONTINUOUS
 10
237.8021835185878100
 20
26.2916540635879060
 30
-0.0000000000000568
 11
241.7188501852545000
 21
26.2916540635879060
 31
-0.0000000000000568
  0
LINE
  8
0
 62
     6
 6
CONTINUOUS
 10
301.4688501852544400
 20
11.7916540635878490
 30
-0.0000000000000568
 11
305.8653067081484700
 21
11.7916540635878490
 31
-0.0000000000000568
  0
LINE
  8
0
 62
     6
 6
CONTINUOUS
 10
295.7578748751088300
 20
11.7916540635878490
 30
-0.0000000000000568
 11
300.4688501852544400
 21
11.7916540635878490
 31
-0.0000000000000568
  0
LINE
  8
0
 62
     6
 6
CONTINUOUS
 10
305.8653067081484700
 20
11.7916540635878490
 30
-0.0000000000000568
 11
309.5521835185877000
 21
19.6226034803872480
 31
-0.0000000000000568
  0
LINE
  8
0
 62
     6
 6
CONTINUOUS
 10
272.1355168519211800
 20
26.2916540635879060
 30
-0.0000000000000568
 11
281.8021835185878100
 21
26.2916540635879060
 31
-0.0000000000000568
  0
POLYLINE
  8
0
 62
     6
  6
CONTINUOUS
 66
     1
 10
0.0
 20
0.0
 30
0.0
 70
     1
  0
VERTEX
  8
0
 62
     6
  6
CONTINUOUS
 10
267.1355168519211800
 20
24.2916540635879060
 30
-0.0000000000000568
 42
0.0693882400544135
  0
VERTEX
  8
0
 62
     6
  6
CONTINUOUS
 10
266.4821495059763900
 20
29.0751969681515270
 30
-0.0000000000000568
 42
0.0813317389931439
  0
VERTEX
  8
0
 62
     6
  6
CONTINUOUS
 10
264.6215167237724000
 20
33.1304888284197500
 30
-0.0000000000000568
 42
0.1069774659436201
  0
VERTEX
  8
0
 62
     6
  6
CONTINUOUS
 10
261.8368829797215700
 20
35.8401482199789920
 30
-0.0000000000000568
 42
0.1365356792858197
  0
VERTEX
  8
0
 62
     6
  6
CONTINUOUS
 10
258.5521835185878700
 20
36.7916540635879060
 30
-0.0000000000000568
 42
0.1365356792858197
  0
VERTEX
  8
0
 62
     6
  6
CONTINUOUS
 10
255.2674840574542000
 20
35.8401482199789920
 30
-0.0000000000000568
 42
0.1069774659436201
  0
VERTEX
  8
0
 62
     6
  6
CONTINUOUS
 10
252.4828503134033600
 20
33.1304888284197500
 30
-0.0000000000000568
 42
0.0813317389931436
  0
VERTEX
  8
0
 62
     6
  6
CONTINUOUS
 10
250.6222175311993400
 20
29.0751969681515310
 30
-0.0000000000000568
 42
0.0693882400544134
  0
VERTEX
  8
0
 62
     6
  6
CONTINUOUS
 10
249.9688501852545500
 20
24.2916540635879060
 30
-0.0000000000000568
 42
0.0693882400544135
  0
VERTEX
  8
0
 62
     6
  6
CONTINUOUS
 10
250.6222175311993400
 20
19.5081111590242850
 30
-0.0000000000000568
 42
0.0813317389931439
  0
VERTEX
  8
0
 62
     6
  6
CONTINUOUS
 10
252.4828503134033300
 20
15.4528192987560630
 30
-0.0000000000000568
 42
0.1069774659436199
  0
VERTEX
  8
0
 62
     6
  6
CONTINUOUS
 10
255.2674840574541700
 20
12.7431599071968250
 30
-0.0000000000000568
 42
0.1365356792858199
  0
VERTEX
  8
0
 62
     6
  6
CONTINUOUS
 10
258.5521835185878700
 20
11.7916540635879060
 30
-0.0000000000000568
 42
0.1365356792858198
  0
VERTEX
  8
0
 62
     6
  6
CONTINUOUS
 10
261.8368829797215700
 20
12.7431599071968230
 30
-0.0000000000000568
 42
0.1069774659436202
  0
VERTEX
  8
0
 62
     6
  6
CONTINUOUS
 10
264.6215167237724000
 20
15.4528192987560690
 30
-0.0000000000000568
 42
0.0813317389931439
  0
VERTEX
  8
0
 62
     6
  6
CONTINUOUS
 10
266.4821495059763900
 20
19.5081111590242950
 30
-0.0000000000000568
 42
0.0693882400544135
  0
SEQEND
  0
LINE
  8
0
 62
     6
 6
CONTINUOUS
 10
272.1355168519211800
 20
22.2916540635879060
 30
-0.0000000000000568
 11
281.8021835185878100
 21
22.2916540635879060
 31
-0.0000000000000568
  0
LINE
  8
0
 62
     6
 6
CONTINUOUS
 10
221.6355168519211500
 20
22.2916540635878490
 30
0.0000000000000000
 11
221.6355168519211500
 21
15.7916540635878490
 31
0.0000000000000000
  0
LINE
  8
0
 62
     6
 6
CONTINUOUS
 10
283.8021835185878100
 20
15.7916540635879060
 30
-0.0000000000000568
 11
283.8021835185878100
 21
11.7916540635878490
 31
-0.0000000000000568
  0
LINE
  8
0
 62
     6
 6
CONTINUOUS
 10
284.8021835185878100
 20
36.7916540635878490
 30
-0.0000000000000568
 11
288.8021835185878100
 21
36.7916540635879060
 31
-0.0000000000000568
  0
LINE
  8
0
 62
     6
 6
CONTINUOUS
 10
281.8021835185878100
 20
26.2916540635879060
 30
-0.0000000000000568
 11
281.8021835185878100
 21
22.2916540635879060
 31
-0.0000000000000568
  0
LINE
  8
0
 62
     6
 6
CONTINUOUS
 10
272.1355168519211800
 20
32.7916540635879060
 30
-0.0000000000000568
 11
272.1355168519211800
 21
26.2916540635879060
 31
-0.0000000000000568
  0
POLYLINE
  8
0
 62
     6
  6
CONTINUOUS
 66
     1
 10
0.0
 20
0.0
 30
0.0
 70
     1
  0
VERTEX
  8
0
 62
     6
  6
CONTINUOUS
 10
263.1355168519211200
 20
24.2916540635879060
 30
-0.0000000000000568
 42
0.0549912875324331
  0
VERTEX
  8
0
 62
     6
  6
CONTINUOUS
 10
262.7866313759312200
 20
27.5444632386911690
 30
-0.0000000000000568
 42
0.0688037637158538
  0
VERTEX
  8
0
 62
     6
  6
CONTINUOUS
 10
261.7930895990261300
 20
30.3020617036735590
 30
-0.0000000000000568
 42
0.1057002023490542
  0
VERTEX
  8
0
 62
     6
  6
CONTINUOUS
 10
260.3061492502611700
 20
32.1446300899338410
 30
-0.0000000000000568
 42
0.1652381540943889
  0
VERTEX
  8
0
 62
     6
  6
CONTINUOUS
 10
258.5521835185878700
 20
32.7916540635879060
 30
-0.0000000000000568
 42
0.1652381540943890
  0
VERTEX
  8
0
 62
     6
  6
CONTINUOUS
 10
256.7982177869145600
 20
32.1446300899338410
 30
-0.0000000000000568
 42
0.1057002023490541
  0
VERTEX
  8
0
 62
     6
  6
CONTINUOUS
 10
255.3112774381495700
 20
30.3020617036735590
 30
-0.0000000000000568
 42
0.0688037637158538
  0
VERTEX
  8
0
 62
     6
  6
CONTINUOUS
 10
254.3177356612445400
 20
27.5444632386911690
 30
-0.0000000000000568
 42
0.0549912875324331
  0
VERTEX
  8
0
 62
     6
  6
CONTINUOUS
 10
253.9688501852546100
 20
24.2916540635879060
 30
-0.0000000000000568
 42
0.0549912875324331
  0
VERTEX
  8
0
 62
     6
  6
CONTINUOUS
 10
254.3177356612445400
 20
21.0388448884846430
 30
-0.0000000000000568
 42
0.0688037637158538
  0
VERTEX
  8
0
 62
     6
  6
CONTINUOUS
 10
255.3112774381495700
 20
18.2812464235022530
 30
-0.0000000000000568
 42
0.1057002023490541
  0
VERTEX
  8
0
 62
     6
  6
CONTINUOUS
 10
256.7982177869145600
 20
16.4386780372419710
 30
-0.0000000000000568
 42
0.1652381540943892
  0
VERTEX
  8
0
 62
     6
  6
CONTINUOUS
 10
258.5521835185878700
 20
15.7916540635879060
 30
-0.0000000000000568
 42
0.1652381540943892
  0
VERTEX
  8
0
 62
     6
  6
CONTINUOUS
 10
260.3061492502611700
 20
16.4386780372419710
 30
-0.0000000000000568
 42
0.1057002023490545
  0
VERTEX
  8
0
 62
     6
  6
CONTINUOUS
 10
261.7930895990261300
 20
18.2812464235022570
 30
-0.0000000000000568
 42
0.0688037637158539
  0
VERTEX
  8
0
 62
     6
  6
CONTINUOUS
 10
262.7866313759312200
 20
21.0388448884846500
 30
-0.0000000000000568
 42
0.0549912875324331
  0
SEQEND
  0
LINE
  8
0
 62
     6
 6
CONTINUOUS
 10
313.2390603290271500
 20
36.7916540635878490
 30
-0.0000000000000568
 11
317.6355168519211800
 21
36.7916540635878490
 31
-0.0000000000000568
  0
LINE
  8
0
 62
     6
 6
CONTINUOUS
 10
313.2390603290270400
 20
11.7916540635879060
 30
-0.0000000000000568
 11
317.6355168519211800
 21
11.7916540635878490
 31
-0.0000000000000568
  0
LINE
  8
0
 62
     6
 6
CONTINUOUS
 10
233.8021835185878100
 20
36.7916540635879060
 30
-0.0000000000000568
 11
241.7188501852545000
 21
36.7916540635879060
 31
-0.0000000000000568
  0
LINE
  8
0
 62
     6
 6
CONTINUOUS
 10
237.8021835185878100
 20
32.7916540635879060
 30
-0.0000000000000568
 11
241.7188501852545000
 21
32.7916540635879060
 31
-0.0000000000000568
  0
LINE
  8
0
 62
     6
 6
CONTINUOUS
 10
272.1355168519211800
 20
15.7916540635879060
 30
-0.0000000000000568
 11
283.8021835185878100
 21
15.7916540635879060
 31
-0.0000000000000568
  0
LINE
  8
0
 62
     6
 6
CONTINUOUS
 10
272.1355168519211800
 20
22.2916540635879060
 30
-0.0000000000000568
 11
272.1355168519211800
 21
15.7916540635879060
 31
-0.0000000000000568
  0
ARC
  8
0
 62
     6
  6
CONTINUOUS
 10
241.7188501852545000
 20
29.5416540635879060
 30
-0.0000000000000568
 40
3.2500000000000142
 50
-90.0000050089564500
 51
90.0000000000000000
  0
ARC
  8
0
 62
     6
  6
CONTINUOUS
 10
241.7188501852545000
 20
29.5416540635879060
 30
-0.0000000000000568
 40
7.2500000000000142
 50
-82.8287957470627130
 51
90.0000000000000000
  0
LINE
  8
0
 62
     6
 6
CONTINUOUS
 10
237.8021835185878400
 20
22.2916540635879060
 30
-0.0000000000000568
 11
237.8021835185878400
 21
11.7916540635879060
 31
-0.0000000000000568
  0
LINE
  8
0
 62
     6
 6
CONTINUOUS
 10
249.9130597681782100
 20
11.7916540635879060
 30
-0.0000000000000568
 11
242.6239010363986200
 21
22.3483667096138210
 31
-0.0000000000000568
  0
LINE
  8
0
 62
     6
 6
CONTINUOUS
 10
245.0521835185877800
 20
11.7916540635879060
 30
-0.0000000000000568
 11
249.9130597681782100
 21
11.7916540635879060
 31
-0.0000000000000568
  0
LINE
  8
0
 62
     6
 6
CONTINUOUS
 10
245.0521835185877800
 20
11.7916540635879060
 30
-0.0000000000000568
 11
237.8021835185878400
 21
22.2916540635879060
 31
-0.0000000000000568
  0
LINE
  8
0
 62
     6
 6
CONTINUOUS
 10
268.1355168519211200
 20
36.7916540635879060
 30
-0.0000000000000568
 11
283.8021835185878100
 21
36.7916540635879060
 31
-0.0000000000000568
  0
LINE
  8
0
 62
     6
 6
CONTINUOUS
 10
268.1355168519211800
 20
11.7916540635879060
 30
-0.0000000000000568
 11
283.8021835185878100
 21
11.7916540635879060
 31
-0.0000000000000568
  0
ARC
  8
0
 62
     6
  6
CONTINUOUS
 10
225.5521835185878400
 20
19.0416540635879060
 30
-0.0000000000000568
 40
3.2500000000000000
 50
-90.0000050089564500
 51
90.0000000000000000
  0
ARC
  8
0
 62
     6
  6
CONTINUOUS
 10
225.5521835185878100
 20
29.5416540635879060
 30
-0.0000000000000568
 40
3.2500000000000000
 50
-90.0000050089564500
 51
90.0000000000000000
  0
ARC
  8
0
 62
     6
  6
CONTINUOUS
 10
225.5521835185878400
 20
19.0416540635879060
 30
-0.0000000000000568
 40
7.2500000000000000
 50
-90.0000050089562790
 51
46.3971810272965400
  0
ARC
  8
0
 62
     6
  6
CONTINUOUS
 10
225.5521835185878100
 20
29.5416540635879060
 30
-0.0000000000000568
 40
7.2500000000000000
 50
-46.3971810272963760
 51
90.0000000000000000
  0
LINE
  8
0
 62
     6
 6
CONTINUOUS
 10
311.7504117800347700
 20
24.2916540635880200
 30
-0.0000000000000568
 11
317.6355168519211800
 21
11.7916540635878490
 31
-0.0000000000000568
  0
LINE
  8
0
 62
     6
 6
CONTINUOUS
 10
217.6355168519211200
 20
36.7916540635878490
 30
0.0000000000000000
 11
225.5521835185878100
 21
36.7916540635879060
 31
-0.0000000000000568
  0
LINE
  8
0
 62
     6
 6
CONTINUOUS
 10
221.6355168519211200
 20
32.7916540635878490
 30
0.0000000000000000
 11
225.5521835185878100
 21
32.7916540635879060
 31
-0.0000000000000568
  0
LINE
  8
0
 62
     6
 6
CONTINUOUS
 10
221.6355168519211200
 20
26.2916540635878490
 30
0.0000000000000000
 11
225.5521835185878100
 21
26.2916540635879060
 31
-0.0000000000000568
  0
LINE
  8
0
 62
     6
 6
CONTINUOUS
 10
221.6355168519211500
 20
22.2916540635878490
 30
0.0000000000000000
 11
225.5521835185878400
 21
22.2916540635879060
 31
-0.0000000000000568
  0
LINE
  8
0
 62
     6
 6
CONTINUOUS
 10
221.6355168519211500
 20
15.7916540635878490
 30
0.0000000000000000
 11
225.5521832344638000
 21
15.7916540635879060
 31
-0.0000000000000568
  0
LINE
  8
0
 62
     6
 6
CONTINUOUS
 10
217.6355168519211500
 20
11.7916540635878490
 30
0.0000000000000000
 11
225.5521828847726900
 21
11.7916540635879060
 31
-0.0000000000000568
  0
LINE
  8
0
 62
     6
 6
CONTINUOUS
 10
288.8021835185878100
 20
36.7916540635878490
 30
-0.0000000000000568
 11
288.8021835185878100
 21
26.2916540635879060
 31
-0.0000000000000568
  0
LINE
  8
0
 62
     6
 6
CONTINUOUS
 10
295.7578748751088300
 20
36.7916540635878490
 30
-0.0000000000000568
 11
300.4688501852544400
 21
36.7916540635878490
 31
-0.0000000000000568
  0
LINE
  8
0
 62
     6
 6
CONTINUOUS
 10
284.8021835185878100
 20
11.7916540635878490
 30
-0.0000000000000568
 11
288.8021835185878100
 21
11.7916540635879060
 31
-0.0000000000000568
  0
LINE
  8
0
 62
     6
 6
CONTINUOUS
 10
305.8653067081484700
 20
36.7916540635879060
 30
-0.0000000000000568
 11
309.5521835185878100
 21
28.9607046467883930
 31
-0.0000000000000568
  0
LINE
  8
0
 62
     6
 6
CONTINUOUS
 10
301.4688501852544400
 20
36.7916540635878490
 30
-0.0000000000000568
 11
307.3539552571408500
 21
24.2916540635878490
 31
-0.0000000000000568
  0
LINE
  8
0
 62
     6
 6
CONTINUOUS
 10
317.6355168519211800
 20
36.7916540635878490
 30
-0.0000000000000568
 11
311.7504117800347700
 21
24.2916540635880200
 31
-0.0000000000000568
  0
LINE
  8
0
 62
     6
 6
CONTINUOUS
 10
313.2390603290271500
 20
36.7916540635878490
 30
-0.0000000000000568
 11
309.5521835185878100
 21
28.9607046467883930
 31
-0.0000000000000568
  0
LINE
  8
0
 62
     6
 6
CONTINUOUS
 10
292.2726345388962800
 20
24.2916540635879060
 30
-0.0000000000000568
 11
300.4688501852544400
 21
11.7916540635878490
 31
-0.0000000000000568
  0
LINE
  8
0
 62
     6
 6
CONTINUOUS
 10
288.8021835185878100
 20
22.2916540635879060
 30
-0.0000000000000568
 11
295.7578748751088300
 21
11.7916540635878490
 31
-0.0000000000000568
  0
LINE
  8
0
 62
     6
 6
CONTINUOUS
 10
309.5521835185878100
 20
19.6226034803873050
 30
-0.0000000000000568
 11
313.2390603290271500
 21
11.7916540635878490
 31
-0.0000000000000568
  0
LINE
  8
0
 62
     6
 6
CONTINUOUS
 10
300.4688501852544400
 20
36.7916540635878490
 30
-0.0000000000000568
 11
292.2726345388962800
 21
24.2916540635879060
 31
-0.0000000000000568
  0
LINE
  8
0
 62
     6
 6
CONTINUOUS
 10
295.7578748751088300
 20
36.7916540635878490
 30
-0.0000000000000568
 11
288.8021835185878100
 21
26.2916540635879060
 31
-0.0000000000000568
  0
LINE
  8
0
 62
     6
 6
CONTINUOUS
 10
218.3855168519211200
 20
36.0416540635878490
 30
0.0000000000000000
 11
218.3855168519211500
 21
12.5416540635878490
 31
0.0000000000000000
  0
LINE
  8
0
 62
     6
 6
CONTINUOUS
 10
220.8855168519211200
 20
33.5416540635878490
 30
0.0000000000000000
 11
220.8855168519211200
 21
25.5416540635878490
 31
0.0000000000000000
  0
LINE
  8
0
 62
     6
 6
CONTINUOUS
 10
220.8855168519211500
 20
23.0416540635878490
 30
0.0000000000000000
 11
220.8855168519211500
 21
15.0416540635878490
 31
0.0000000000000000
  0
LINE
  8
0
 62
     6
 6
CONTINUOUS
 10
220.8855168519211500
 20
15.0416540635878490
 30
0.0000000000000000
 11
225.5521832344638000
 21
15.0416540635879060
 31
-0.0000000000000568
  0
LINE
  8
0
 62
     6
 6
CONTINUOUS
 10
218.3855168519211500
 20
12.5416540635878490
 30
0.0000000000000000
 11
225.5521828847726900
 21
12.5416540635879060
 31
-0.0000000000000568
  0
LINE
  8
0
 62
     6
 6
CONTINUOUS
 10
220.8855168519211500
 20
23.0416540635878490
 30
0.0000000000000000
 11
225.5521835185878400
 21
23.0416540635879060
 31
-0.0000000000000568
  0
LINE
  8
0
 62
     6
 6
CONTINUOUS
 10
220.8855168519211200
 20
25.5416540635878490
 30
0.0000000000000000
 11
225.5521835185878100
 21
25.5416540635879060
 31
-0.0000000000000568
  0
LINE
  8
0
 62
     6
 6
CONTINUOUS
 10
220.8855168519211200
 20
33.5416540635878490
 30
0.0000000000000000
 11
225.5521835185878100
 21
33.5416540635879060
 31
-0.0000000000000568
  0
LINE
  8
0
 62
     6
 6
CONTINUOUS
 10
218.3855168519211200
 20
36.0416540635878490
 30
0.0000000000000000
 11
225.5521835185878100
 21
36.0416540635879060
 31
-0.0000000000000568
  0
LINE
  8
0
 62
     6
 6
CONTINUOUS
 10
234.5521835185878100
 20
36.0416540635879060
 30
-0.0000000000000568
 11
234.5521835185878400
 21
12.5416540635879060
 31
-0.0000000000000568
  0
LINE
  8
0
 62
     6
 6
CONTINUOUS
 10
234.5521835185878100
 20
36.0416540635879060
 30
-0.0000000000000568
 11
241.7188501852545000
 21
36.0416540635879060
 31
-0.0000000000000568
  0
LINE
  8
0
 62
     6
 6
CONTINUOUS
 10
237.0521835185878100
 20
33.5416540635879060
 30
-0.0000000000000568
 11
241.7188501852545000
 21
33.5416540635879060
 31
-0.0000000000000568
  0
LINE
  8
0
 62
     6
 6
CONTINUOUS
 10
237.0521835185878100
 20
33.5416540635879060
 30
-0.0000000000000568
 11
237.0521835185878100
 21
25.5416540635879060
 31
-0.0000000000000568
  0
LINE
  8
0
 62
     6
 6
CONTINUOUS
 10
237.0521835185878100
 20
25.5416540635879060
 30
-0.0000000000000568
 11
241.7188501852545000
 21
25.5416540635879060
 31
-0.0000000000000568
  0
LINE
  8
0
 62
     6
 6
CONTINUOUS
 10
234.5521835185878400
 20
12.5416540635879060
 30
-0.0000000000000568
 11
237.0521835185878400
 21
12.5416540635879060
 31
-0.0000000000000568
  0
LINE
  8
0
 62
     6
 6
CONTINUOUS
 10
245.4457406725287900
 20
12.5416540635879060
 30
-0.0000000000000568
 11
248.4837883285228800
 21
12.5416540635879060
 31
-0.0000000000000568
  0
LINE
  8
0
 62
     6
 6
CONTINUOUS
 10
248.4837883285228800
 20
12.5416540635879060
 30
-0.0000000000000568
 11
241.2337883285231000
 21
23.0416540635879060
 31
-0.0000000000000568
  0
LINE
  8
0
 62
     6
 6
CONTINUOUS
 10
245.4457406725287900
 20
12.5416540635879060
 30
-0.0000000000000568
 11
238.1957406725289000
 21
23.0416540635879060
 31
-0.0000000000000568
  0
LINE
  8
0
 62
     6
 6
CONTINUOUS
 10
237.0521835185878400
 20
23.0416540635879060
 30
-0.0000000000000568
 11
237.0521835185878400
 21
12.5416540635879060
 31
-0.0000000000000568
  0
LINE
  8
0
 62
     6
 6
CONTINUOUS
 10
268.8855168519211800
 20
36.0416540635879060
 30
-0.0000000000000568
 11
268.8855168519211800
 21
12.5416540635879060
 31
-0.0000000000000568
  0
LINE
  8
0
 62
     6
 6
CONTINUOUS
 10
271.3855168519211800
 20
33.5416540635879060
 30
-0.0000000000000568
 11
271.3855168519211800
 21
25.5416540635879060
 31
-0.0000000000000568
  0
LINE
  8
0
 62
     6
 6
CONTINUOUS
 10
271.3855168519211800
 20
23.0416540635879060
 30
-0.0000000000000568
 11
271.3855168519211800
 21
15.0416540635879060
 31
-0.0000000000000568
  0
LINE
  8
0
 62
     6
 6
CONTINUOUS
 10
268.8855168519211800
 20
12.5416540635879060
 30
-0.0000000000000568
 11
283.0521835185878100
 21
12.5416540635879060
 31
-0.0000000000000568
  0
LINE
  8
0
 62
     6
 6
CONTINUOUS
 10
271.3855168519211800
 20
15.0416540635879060
 30
-0.0000000000000568
 11
283.0521835185878100
 21
15.0416540635879060
 31
-0.0000000000000568
  0
LINE
  8
0
 62
     6
 6
CONTINUOUS
 10
271.3855168519211800
 20
23.0416540635879060
 30
-0.0000000000000568
 11
281.0521835185878100
 21
23.0416540635879060
 31
-0.0000000000000568
  0
LINE
  8
0
 62
     6
 6
CONTINUOUS
 10
271.3855168519211800
 20
25.5416540635879060
 30
-0.0000000000000568
 11
281.0521835185878100
 21
25.5416540635879060
 31
-0.0000000000000568
  0
LINE
  8
0
 62
     6
 6
CONTINUOUS
 10
271.3855168519211800
 20
33.5416540635879060
 30
-0.0000000000000568
 11
283.0521835185878100
 21
33.5416540635879060
 31
-0.0000000000000568
  0
LINE
  8
0
 62
     6
 6
CONTINUOUS
 10
268.8855168519211800
 20
36.0416540635879060
 30
-0.0000000000000568
 11
283.0521835185878100
 21
36.0416540635879060
 31
-0.0000000000000568
  0
LINE
  8
0
 62
     6
 6
CONTINUOUS
 10
283.0521835185878100
 20
36.0416540635879060
 30
-0.0000000000000568
 11
283.0521835185878100
 21
33.5416540635879060
 31
-0.0000000000000568
  0
LINE
  8
0
 62
     6
 6
CONTINUOUS
 10
281.0521835185878100
 20
25.5416540635879060
 30
-0.0000000000000568
 11
281.0521835185878100
 21
23.0416540635879060
 31
-0.0000000000000568
  0
LINE
  8
0
 62
     6
 6
CONTINUOUS
 10
283.0521835185878100
 20
15.0416540635879060
 30
-0.0000000000000568
 11
283.0521835185878100
 21
12.5416540635879060
 31
-0.0000000000000568
  0
LINE
  8
0
 62
     6
 6
CONTINUOUS
 10
285.5521835185878100
 20
36.0416540635878490
 30
-0.0000000000000568
 11
285.5521835185878100
 21
12.5416540635878490
 31
-0.0000000000000568
  0
LINE
  8
0
 62
     6
 6
CONTINUOUS
 10
288.0521835185878100
 20
23.0416540635879060
 30
-0.0000000000000568
 11
289.2049845222953200
 21
23.0416540635879060
 31
-0.0000000000000568
  0
LINE
  8
0
 62
     6
 6
CONTINUOUS
 10
288.0521835185878100
 20
23.0416540635879060
 30
-0.0000000000000568
 11
288.0521835185878100
 21
12.5416540635879060
 31
-0.0000000000000568
  0
LINE
  8
0
 62
     6
 6
CONTINUOUS
 10
285.5521835185878100
 20
12.5416540635878490
 30
-0.0000000000000568
 11
288.0521835185878100
 21
12.5416540635879060
 31
-0.0000000000000568
  0
LINE
  8
0
 62
     6
 6
CONTINUOUS
 10
285.5521835185878100
 20
36.0416540635878490
 30
-0.0000000000000568
 11
288.0521835185878100
 21
36.0416540635879060
 31
-0.0000000000000568
  0
LINE
  8
0
 62
     6
 6
CONTINUOUS
 10
288.0521835185878100
 20
25.5416540635879060
 30
-0.0000000000000568
 11
289.2049845222952100
 21
25.5416540635879060
 31
-0.0000000000000568
  0
LINE
  8
0
 62
     6
 6
CONTINUOUS
 10
288.0521835185878100
 20
36.0416540635879060
 30
-0.0000000000000568
 11
288.0521835185878100
 21
25.5416540635879060
 31
-0.0000000000000568
  0
LINE
  8
0
 62
     6
 6
CONTINUOUS
 10
289.2049845222953200
 20
23.0416540635879060
 30
-0.0000000000000568
 11
296.1606758788162200
 21
12.5416540635878490
 31
-0.0000000000000568
  0
LINE
  8
0
 62
     6
 6
CONTINUOUS
 10
296.1606758788162200
 20
36.0416540635878490
 30
-0.0000000000000568
 11
289.2049845222952100
 21
25.5416540635879060
 31
-0.0000000000000568
  0
LINE
  8
0
 62
     6
 6
CONTINUOUS
 10
299.0802268557623100
 20
36.0416540635878490
 30
-0.0000000000000568
 11
291.3757841481856900
 21
24.2916540635879060
 31
-0.0000000000000568
  0
LINE
  8
0
 62
     6
 6
CONTINUOUS
 10
291.3757841481856900
 20
24.2916540635879060
 30
-0.0000000000000568
 11
299.0802268557624200
 21
12.5416540635878490
 31
-0.0000000000000568
  0
LINE
  8
0
 62
     6
 6
CONTINUOUS
 10
296.1606758788162200
 20
36.0416540635878490
 30
-0.0000000000000568
 11
299.0802268557623100
 21
36.0416540635878490
 31
-0.0000000000000568
  0
LINE
  8
0
 62
     6
 6
CONTINUOUS
 10
296.1606758788162200
 20
12.5416540635878490
 30
-0.0000000000000568
 11
299.0802268557624200
 21
12.5416540635878490
 31
-0.0000000000000568
  0
LINE
  8
0
 62
     6
 6
CONTINUOUS
 10
308.1829209151422300
 20
24.2916540635879060
 30
-0.0000000000000568
 11
302.6509221475690200
 21
12.5416540635878490
 31
-0.0000000000000568
  0
LINE
  8
0
 62
     6
 6
CONTINUOUS
 10
305.3894473544601700
 20
12.5416540635878490
 30
-0.0000000000000568
 11
309.5521835185877000
 21
21.3833317254136760
 31
-0.0000000000000568
  0
LINE
  8
0
 62
     6
 6
CONTINUOUS
 10
309.5521835185877000
 20
21.3833317254136760
 30
-0.0000000000000568
 11
313.7149196827153300
 21
12.5416540635879060
 31
-0.0000000000000568
  0
LINE
  8
0
 62
     6
 6
CONTINUOUS
 10
310.9214461220332700
 20
24.2916540635879060
 30
-0.0000000000000568
 11
316.4534448896064900
 21
12.5416540635878490
 31
-0.0000000000000568
  0
LINE
  8
0
 62
     6
 6
CONTINUOUS
 10
302.6509221475690200
 20
12.5416540635878490
 30
-0.0000000000000568
 11
305.3894473544601700
 21
12.5416540635878490
 31
-0.0000000000000568
  0
LINE
  8
0
 62
     6
 6
CONTINUOUS
 10
313.7149196827153300
 20
12.5416540635879060
 30
-0.0000000000000568
 11
316.4534448896064900
 21
12.5416540635878490
 31
-0.0000000000000568
  0
LINE
  8
0
 62
     6
 6
CONTINUOUS
 10
302.6509221475690200
 20
36.0416540635878490
 30
-0.0000000000000568
 11
308.1829209151422300
 21
24.2916540635879060
 31
-0.0000000000000568
  0
LINE
  8
0
 62
     6
 6
CONTINUOUS
 10
305.3894473544602900
 20
36.0416540635879060
 30
-0.0000000000000568
 11
309.5521835185878100
 21
27.1999764017620790
 31
-0.0000000000000568
  0
LINE
  8
0
 62
     6
 6
CONTINUOUS
 10
302.6509221475690200
 20
36.0416540635878490
 30
-0.0000000000000568
 11
305.3894473544602900
 21
36.0416540635879060
 31
-0.0000000000000568
  0
LINE
  8
0
 62
     6
 6
CONTINUOUS
 10
313.7149196827154500
 20
36.0416540635878490
 30
-0.0000000000000568
 11
309.5521835185878100
 21
27.1999764017620790
 31
-0.0000000000000568
  0
LINE
  8
0
 62
     6
 6
CONTINUOUS
 10
313.7149196827153300
 20
36.0416540635878490
 30
-0.0000000000000568
 11
316.4534448896064900
 21
36.0416540635878490
 31
-0.0000000000000568
  0
LINE
  8
0
 62
     6
 6
CONTINUOUS
 10
316.4534448896064900
 20
36.0416540635878490
 30
-0.0000000000000568
 11
310.9214461220332700
 21
24.2916540635879060
 31
-0.0000000000000568
  0
LINE
  8
0
 62
     6
 6
CONTINUOUS
 10
237.0521835185878400
 20
23.0416540635879060
 30
-0.0000000000000568
 11
238.1957406725288400
 21
23.0416540635879060
 31
-0.0000000000000568
  0
ARC
  8
0
 62
     6
  6
CONTINUOUS
 10
225.5521835185878100
 20
29.5416540635879060
 30
-0.0000000000000568
 40
6.5000000000000000
 50
-53.8710725280619300
 51
90.0000000000000000
  0
ARC
  8
0
 62
     6
  6
CONTINUOUS
 10
225.5521835185878400
 20
19.0416540635879060
 30
-0.0000000000000568
 40
6.5000000000000000
 50
-90.0000055869112570
 51
53.8710725280621290
  0
ARC
  8
0
 62
     6
  6
CONTINUOUS
 10
241.7188501852545000
 20
29.5416540635879060
 30
-0.0000000000000568
 40
6.5000000000000142
 50
-89.9999999999997580
 51
90.0000000000000000
  0
LINE
  8
0
 62
     6
 6
CONTINUOUS
 10
241.2337883285231000
 20
23.0416540635879060
 30
-0.0000000000000568
 11
241.7188501852545200
 21
23.0416540635879060
 31
-0.0000000000000568
  0
ARC
  8
0
 62
     6
  6
CONTINUOUS
 10
241.7188501852545000
 20
29.5416540635879060
 30
-0.0000000000000568
 40
4.0000000000000142
 50
-90.0000000000000000
 51
90.0000000000000000
  0
ARC
  8
0
 62
     6
  6
CONTINUOUS
 10
225.5521835185878100
 20
29.5416540635879060
 30
-0.0000000000000568
 40
4.0000000000000000
 50
-90.0000000000000000
 51
90.0000000000000000
  0
ARC
  8
0
 62
     6
  6
CONTINUOUS
 10
225.5521835185878400
 20
19.0416540635879060
 30
-0.0000000000000568
 40
4.0000000000000000
 50
-90.0000040697779300
 51
90.0000000000000000
  0
POLYLINE
  8
0
 62
     6
  6
CONTINUOUS
 66
     1
 10
0.0
 20
0.0
 30
0.0
 70
     1
  0
VERTEX
  8
0
 62
     6
  6
CONTINUOUS
 10
266.3855168519211200
 20
24.2916540635879060
 30
-0.0000000000000568
 42
0.0674590399341525
  0
VERTEX
  8
0
 62
     6
  6
CONTINUOUS
 10
265.7892398565928700
 20
28.7881843938777100
 30
-0.0000000000000568
 42
0.0798124861749917
  0
VERTEX
  8
0
 62
     6
  6
CONTINUOUS
 10
264.0911866378824600
 20
32.6001587425298420
 30
-0.0000000000000568
 42
0.1071181112083430
  0
VERTEX
  8
0
 62
     6
  6
CONTINUOUS
 10
261.5498704054477300
 20
35.1472385705955260
 30
-0.0000000000000568
 42
0.1398891526406611
  0
VERTEX
  8
0
 62
     6
  6
CONTINUOUS
 10
258.5521835185878700
 20
36.0416540635879060
 30
-0.0000000000000568
 42
0.1398891526406610
  0
VERTEX
  8
0
 62
     6
  6
CONTINUOUS
 10
255.5544966317280300
 20
35.1472385705955260
 30
-0.0000000000000568
 42
0.1071181112083430
  0
VERTEX
  8
0
 62
     6
  6
CONTINUOUS
 10
253.0131803992933000
 20
32.6001587425298420
 30
-0.0000000000000568
 42
0.0798124861749915
  0
VERTEX
  8
0
 62
     6
  6
CONTINUOUS
 10
251.3151271805828600
 20
28.7881843938777140
 30
-0.0000000000000568
 42
0.0674590399341524
  0
VERTEX
  8
0
 62
     6
  6
CONTINUOUS
 10
250.7188501852546100
 20
24.2916540635879060
 30
-0.0000000000000568
 42
0.0674590399341525
  0
VERTEX
  8
0
 62
     6
  6
CONTINUOUS
 10
251.3151271805828600
 20
19.7951237332981020
 30
-0.0000000000000568
 42
0.0798124861749918
  0
VERTEX
  8
0
 62
     6
  6
CONTINUOUS
 10
253.0131803992933000
 20
15.9831493846459730
 30
-0.0000000000000568
 42
0.1071181112083429
  0
VERTEX
  8
0
 62
     6
  6
CONTINUOUS
 10
255.5544966317280300
 20
13.4360695565802890
 30
-0.0000000000000568
 42
0.1398891526406612
  0
VERTEX
  8
0
 62
     6
  6
CONTINUOUS
 10
258.5521835185878700
 20
12.5416540635879060
 30
-0.0000000000000568
 42
0.1398891526406612
  0
VERTEX
  8
0
 62
     6
  6
CONTINUOUS
 10
261.5498704054477300
 20
13.4360695565802870
 30
-0.0000000000000568
 42
0.1071181112083433
  0
VERTEX
  8
0
 62
     6
  6
CONTINUOUS
 10
264.0911866378824600
 20
15.9831493846459780
 30
-0.0000000000000568
 42
0.0798124861749919
  0
VERTEX
  8
0
 62
     6
  6
CONTINUOUS
 10
265.7892398565928700
 20
19.7951237332981120
 30
-0.0000000000000568
 42
0.0674590399341525
  0
SEQEND
  0
POLYLINE
  8
0
 62
     6
  6
CONTINUOUS
 66
     1
 10
0.0
 20
0.0
 30
0.0
 70
     1
  0
VERTEX
  8
0
 62
     6
  6
CONTINUOUS
 10
263.8855168519211200
 20
24.2916540635879060
 30
-0.0000000000000568
 42
0.0586758164562736
  0
VERTEX
  8
0
 62
     6
  6
CONTINUOUS
 10
263.4795410253146900
 20
27.8314758129649850
 30
-0.0000000000000568
 42
0.0722713954496342
  0
VERTEX
  8
0
 62
     6
  6
CONTINUOUS
 10
262.3234196849160800
 20
30.8323917895634700
 30
-0.0000000000000568
 42
0.1066031941547511
  0
VERTEX
  8
0
 62
     6
  6
CONTINUOUS
 10
260.5931618245350000
 20
32.8375397393173070
 30
-0.0000000000000568
 42
0.1570139515151889
  0
VERTEX
  8
0
 62
     6
  6
CONTINUOUS
 10
258.5521835185878700
 20
33.5416540635879060
 30
-0.0000000000000568
 42
0.1570139515151889
  0
VERTEX
  8
0
 62
     6
  6
CONTINUOUS
 10
256.5112052126407300
 20
32.8375397393173070
 30
-0.0000000000000568
 42
0.1066031941547511
  0
VERTEX
  8
0
 62
     6
  6
CONTINUOUS
 10
254.7809473522596600
 20
30.8323917895634700
 30
-0.0000000000000568
 42
0.0722713954496342
  0
VERTEX
  8
0
 62
     6
  6
CONTINUOUS
 10
253.6248260118610700
 20
27.8314758129649890
 30
-0.0000000000000568
 42
0.0586758164562736
  0
VERTEX
  8
0
 62
     6
  6
CONTINUOUS
 10
253.2188501852546100
 20
24.2916540635879060
 30
-0.0000000000000568
 42
0.0586758164562734
  0
VERTEX
  8
0
 62
     6
  6
CONTINUOUS
 10
253.6248260118610700
 20
20.7518323142108270
 30
-0.0000000000000568
 42
0.0722713954496339
  0
VERTEX
  8
0
 62
     6
  6
CONTINUOUS
 10
254.7809473522596600
 20
17.7509163376123420
 30
-0.0000000000000568
 42
0.1066031941547508
  0
VERTEX
  8
0
 62
     6
  6
CONTINUOUS
 10
256.5112052126407300
 20
15.7457683878585060
 30
-0.0000000000000568
 42
0.1570139515151890
  0
VERTEX
  8
0
 62
     6
  6
CONTINUOUS
 10
258.5521835185878700
 20
15.0416540635879060
 30
-0.0000000000000568
 42
0.1570139515151891
  0
VERTEX
  8
0
 62
     6
  6
CONTINUOUS
 10
260.5931618245350000
 20
15.7457683878585040
 30
-0.0000000000000568
 42
0.1066031941547511
  0
VERTEX
  8
0
 62
     6
  6
CONTINUOUS
 10
262.3234196849160800
 20
17.7509163376123450
 30
-0.0000000000000568
 42
0.0722713954496343
  0
VERTEX
  8
0
 62
     6
  6
CONTINUOUS
 10
263.4795410253146900
 20
20.7518323142108340
 30
-0.0000000000000568
 42
0.0586758164562738
  0
SEQEND
  0
CIRCLE
  8
0
 62
     6
  6
CONTINUOUS
 10
515.0000000000000000
 20
44.0000000000000000
 30
0.0000000000000000
 40
1.5000000000000000
  0
CIRCLE
  8
0
 62
     6
  6
CONTINUOUS
 10
350.0000000000000000
 20
44.0000000000000000
 30
0.0000000000000000
 40
1.5000000000000000
  0
CIRCLE
  8
0
 62
     6
  6
CONTINUOUS
 10
185.0000000000000000
 20
44.0000000000000000
 30
0.0000000000000000
 40
1.5000000000000000
  0
CIRCLE
  8
0
 62
     6
  6
CONTINUOUS
 10
20.0000000000000000
 20
44.0000000000000000
 30
0.0000000000000000
 40
1.5000000000000000
  0
ENDSEC
  0
EOF
