  0
SECTION
  2
HEADER
  9
$ACADVER
 1
AC1009
  9
$EXTMIN
 10
-291.5000000000000000
 20
-28.5000000000000000
  9
$EXTMAX
 10
291.5000000000000000
 20
598.5000000000000000
  9
$LIMMIN
 10
-291.5000000000000000
 20
-28.5000000000000000
  9
$LIMMAX
 10
291.5000000000000000
 20
598.5000000000000000
  9
$LTSCALE
 40
5.0000000000000000
  9
$LUPREC
 70
     2
  9
$LUNITS
 70
     2
  9
$AUPREC
 70
     2
  9
$TEXTSIZE
 40
3.0000000000000000
  9
$DIMSCALE
 40
1.0000000000000000
  9
$DIMLFAC
 40
1.0000000000000000
  9
$DIMTXT
 40
10.0000000000000000
  9
$DIMEXO
 40
15.0000000000000000
  9
$DIMASZ
 40
10.0000000000000000
  9
$DIMEXE
 40
10.0000000000000000
  9
$DIMSE1
 70
     0
  9
$DIMSE2
 70
     0
  9
$AUNITS
 70
     0
  9
$DIMTAD
 70
     1
  9
$DIMTIH
 70
     0
  9
$DIMTOH
 70
     0
  9
$FILLMODE
 70
     1
  0
ENDSEC
  0
SECTION
  2
TABLES
  0
TABLE
  2
LTYPE
 70
     0
  0
LTYPE
  2
CONTINUOUS
 70
    64
  3
Solid line
 72
    65
 73
     0
 40
0.0
  0
ENDTAB
  0
TABLE
  2
LAYER
 70
     0
  0
LAYER
  2
0
 70
  64
  62
7
  6
CONTINUOUS
  0
ENDTAB
  0
ENDSEC
  0
SECTION
  2
BLOCKS
  0
ENDSEC
  0
SECTION
  2
ENTITIES
  0
LINE
  8
0
 62
     1
 6
CONTINUOUS
 10
265.0000000000000000
 20
0.0000000000000000
 30
0.0000000000000000
 11
265.0000000000000000
 21
570.0000000000000000
 31
0.0000000000000000
  0
LINE
  8
0
 62
     1
 6
CONTINUOUS
 10
-265.0000000000000000
 20
0.0000000000000000
 30
0.0000000000000000
 11
265.0000000000000000
 21
0.0000000000000000
 31
0.0000000000000000
  0
LINE
  8
0
 62
     1
 6
CONTINUOUS
 10
-265.0000000000000000
 20
570.0000000000000000
 30
0.0000000000000000
 11
-265.0000000000000000
 21
0.0000000000000000
 31
0.0000000000000000
  0
LINE
  8
0
 62
     1
 6
CONTINUOUS
 10
265.0000000000000000
 20
570.0000000000000000
 30
0.0000000000000000
 11
-265.0000000000000000
 21
570.0000000000000000
 31
0.0000000000000000
  0
CIRCLE
  8
0
 62
     1
  6
CONTINUOUS
 10
214.0000000000000000
 20
493.0000000000000000
 30
0.0000000000000000
 40
1.6000000000000085
  0
CIRCLE
  8
0
 62
     1
  6
CONTINUOUS
 10
5.0000000000000000
 20
493.0000000000000000
 30
0.0000000000000000
 40
1.6000000000000112
  0
CIRCLE
  8
0
 62
     1
  6
CONTINUOUS
 10
-5.0000000000000000
 20
493.0000000000000000
 30
0.0000000000000000
 40
1.6000000000000114
  0
CIRCLE
  8
0
 62
     1
  6
CONTINUOUS
 10
-214.0000000000000000
 20
493.0000000000000000
 30
0.0000000000000000
 40
1.6000000000000085
  0
CIRCLE
  8
0
 62
     1
  6
CONTINUOUS
 10
-109.5000000000000000
 20
388.5000000000000000
 30
0.0000000000000000
 40
1.6000000000000085
  0
CIRCLE
  8
0
 62
     1
  6
CONTINUOUS
 10
109.5000000000000000
 20
388.5000000000000000
 30
0.0000000000000000
 40
1.6000000000000085
  0
CIRCLE
  8
0
 62
     1
  6
CONTINUOUS
 10
214.0000000000000000
 20
284.0000000000000000
 30
0.0000000000000000
 40
1.6000000000000085
  0
CIRCLE
  8
0
 62
     1
  6
CONTINUOUS
 10
214.0000000000000000
 20
274.0000000000000000
 30
0.0000000000000000
 40
1.6000000000000085
  0
CIRCLE
  8
0
 62
     1
  6
CONTINUOUS
 10
214.0000000000000000
 20
65.0000000000000000
 30
0.0000000000000000
 40
1.5999999999999943
  0
CIRCLE
  8
0
 62
     1
  6
CONTINUOUS
 10
5.0000000000000000
 20
65.0000000000000000
 30
0.0000000000000000
 40
1.5999999999999970
  0
CIRCLE
  8
0
 62
     1
  6
CONTINUOUS
 10
-5.0000000000000000
 20
65.0000000000000000
 30
0.0000000000000000
 40
1.5999999999999972
  0
CIRCLE
  8
0
 62
     1
  6
CONTINUOUS
 10
-214.0000000000000000
 20
65.0000000000000000
 30
0.0000000000000000
 40
1.5999999999999943
  0
CIRCLE
  8
0
 62
     1
  6
CONTINUOUS
 10
-109.5000000000000000
 20
169.5000000000000000
 30
0.0000000000000000
 40
1.5999999999999943
  0
CIRCLE
  8
0
 62
     1
  6
CONTINUOUS
 10
109.5000000000000000
 20
169.5000000000000000
 30
0.0000000000000000
 40
1.5999999999999943
  0
CIRCLE
  8
0
 62
     1
  6
CONTINUOUS
 10
-5.0000000000000000
 20
274.0000000000000000
 30
0.0000000000000000
 40
1.6000000000000114
  0
CIRCLE
  8
0
 62
     1
  6
CONTINUOUS
 10
-5.0000000000000000
 20
284.0000000000000000
 30
0.0000000000000000
 40
1.6000000000000114
  0
CIRCLE
  8
0
 62
     1
  6
CONTINUOUS
 10
5.0000000000000000
 20
284.0000000000000000
 30
0.0000000000000000
 40
1.6000000000000112
  0
CIRCLE
  8
0
 62
     1
  6
CONTINUOUS
 10
5.0000000000000000
 20
274.0000000000000000
 30
0.0000000000000000
 40
1.6000000000000112
  0
CIRCLE
  8
0
 62
     1
  6
CONTINUOUS
 10
-214.0000000000000000
 20
274.0000000000000000
 30
0.0000000000000000
 40
1.6000000000000085
  0
CIRCLE
  8
0
 62
     1
  6
CONTINUOUS
 10
-214.0000000000000000
 20
284.0000000000000000
 30
0.0000000000000000
 40
1.6000000000000085
  0
CIRCLE
  8
0
 62
     1
  6
CONTINUOUS
 10
-215.0000000000000000
 20
565.0000000000000000
 30
0.0000000000000000
 40
2.0000000000000000
  0
CIRCLE
  8
0
 62
     1
  6
CONTINUOUS
 10
215.0000000000000000
 20
565.0000000000000000
 30
0.0000000000000000
 40
2.0000000000000000
  0
CIRCLE
  8
0
 62
     1
  6
CONTINUOUS
 10
0.0000000000000000
 20
565.0000000000000000
 30
0.0000000000000000
 40
2.0000000000000000
  0
CIRCLE
  8
0
 62
     1
  6
CONTINUOUS
 10
-215.0000000000000000
 20
5.0000000000000000
 30
0.0000000000000000
 40
2.0000000000000000
  0
CIRCLE
  8
0
 62
     1
  6
CONTINUOUS
 10
0.0000000000000000
 20
5.0000000000000000
 30
0.0000000000000000
 40
2.0000000000000000
  0
CIRCLE
  8
0
 62
     1
  6
CONTINUOUS
 10
215.0000000000000000
 20
5.0000000000000000
 30
0.0000000000000000
 40
2.0000000000000000
  0
ENDSEC
  0
EOF
